<svg xmlns="http://www.w3.org/2000/svg" viewBox="0 0 282 50" xmlns:v="https://vecta.io/nano"><path d="M90.8 48.9v-7.3H69.9v7.3h-2.8v-1.8h-1.9v-3.7h-1.8v-4.6h5.5v-9.1h1.8v-9.1h1.8V9.7h1.9V4.2h1.8V.6H90v1.8h1.8v36.4h5.5v4.6h-1.8v3.7h-1.8v1.8h-2.9zm-5.5-10.1V3.4H79v7.3h-1.8v10.9h-1.8v9.1h-1.9v8.1h11.8zm182.4 2.8v-1.8h-1.8v-1.9H264v-3.6h-1.9v-5.5h-1.8V13.3h1.8V7.8h1.9V4.2h1.8V2.4h1.8V.5h12v1.9h1.9V7h-1.9v1.9h-1.8v.8h1.8v2.8h-2.8v-1.8H275V6h1.8V3.4h-4.5v1.8h-1.8v3.7h-1.9v5.5h-1.8V28h1.8v5.5h1.9v3.6h1.8V39h4.5v-1.9h1.8v-1.8h2.9V40h-1.9v1.8h-11.9zm-35.3 0v-1.8h-1.8v-1.9h-1.8v-3.6H227v-5.5h-1.8V13.3h1.8V7.8h1.9V4.2h1.8V2.4h1.8V.5H250v1.9h1.8v1.8h1.8v3.7h1.9v5.5h1.8V29h-1.8v5.5h-1.9v3.6h-1.8V40H250v1.8h-17.6zm12.9-2.8v-1.9h1.8v-3.6h1.9v-5.5h1.8V14.3H249V8.8h-1.9V5.2h-1.8V3.4h-8.2v1.8h-1.8v3.7h-1.9v5.5h-1.8V28h1.8v5.5h1.9v3.6h1.8V39h8.2zm-47.8 2.8v-1.8h-1.8V.5H215v1.9h1.9v1.8h1.8v3.7h1.9v5.5h1.8V29h-1.8v5.5h-1.9v3.6h-1.8V40H215v1.8h-17.5zm12.8-2.8v-1.9h1.8v-3.6h1.8v-5.5h1.9V14.3h-1.9V8.8h-1.8V5.2h-1.8V3.4h-8.2v35.4h8.2zm-21.6 2.8v-4.7h4.7v4.7h-4.7zm-6.8 0v-5.5H180v-5.5h-1.8v-1.8h-4.5v1.8h-1.8v9.1h-1.8v1.8h-4.7v-1.8h-1.8v-8.3h2.8v7.3h.9v-9.1h1.8v-.8H160V27h-1.9v-1.8h-1.8v-4.7h2.8v1.8h3.7v1.9h3.6V26h2.7v-5.5h1.8V9.7h1.8V4.3h1.9V.6h4.6v3.7h1.8v5.4h1.9v10.9h1.8v9.1h1.8v11.9h-4.6zm-3.7-15.5v-4.5h-1.8V10.7h-.8v10.9h-1.9v4.5h4.5zm-29.9 15.5v-1.8h-1.9V21.6h-9.9v20h-4.7v-1.8H130V.6h4.7v1.8h1.8v16.4h9.9V.6h4.7v1.8h1.8v39.2h-4.6zm-27.8 0v-1.8h-1.8v-1.9h-.9v1.9H116v1.8h-11.9v-1.8h-1.9v-1.9h-1.8V.6h4.7v1.9h1.8V37h1.8v1.9h4.5V37h1.8v-1.8h1.8V.6h4.7v1.9h1.8v36.3h.8v-1.9h2.9v2.9h-1.9v1.8h-4.6zm-81.3 0v-1.8h-1.8v-1.9h-1.8v-3.6h-1.9v-5.5h-1.8V13.3h1.8V7.9h1.9V4.3h1.8V2.4h1.8V.6h17.5v1.8h1.8v1.9h1.8v3.6h1.8v5.5H64v15.5h-1.9v5.5h-1.8V38h-1.8v1.9h-1.8v1.8H39.2zM52 38.8v-1.9h1.8v-3.6h1.9v-5.5h1.8V14.3h-1.8V8.9h-1.9V5.3H52V3.4h-8.1v1.9H42v3.6h-1.8v5.5h-1.8v13.5h1.8v5.5H42V37h1.9v1.9H52zM4.1 41.6v-1.8H2.3V38H.5v-4.7h1.8v-1.8h2.8v7.3H6V3.5H4.1V.7h19.3v1.8h1.8v1.8H27V8h1.9v11.9H27v3.7h-1.8v1.8h-3.6v1.8h-9.2v12.7h-1.8v1.8H4.1zm14.6-17.3v-1.8h1.9v-3.7h1.8V8.9h-1.8V5.3h-1.9V3.5h-6.3v20.8h6.3z" fill="#494639"/><path d="M279.1 1v1.9h1.9v3.6h-1.9v1.9h-1.8v1.8h-1.8V6.5h1.8V2.9h-5.5v1.8H270v3.7h-1.9v5.5h-1.8v14.6h1.8V34h1.9v3.6h1.8v1.9h5.5v-1.9h1.8v-1.8h1.9v3.7h-1.9v1.8h-11v-1.8h-1.8v-1.9h-1.8V34h-1.9v-5.5h-1.8V13.8h1.8V8.3h1.9V4.7h1.8V2.9h1.8V1h11m-29.6 0v1.9h1.8v1.8h1.8v3.7h1.9v5.5h1.8v14.6H255V34h-1.9v3.6h-1.8v1.9h-1.8v1.8H233v-1.8h-1.8v-1.9h-1.8V34h-1.9v-5.5h-1.8V13.8h1.8V8.3h1.9V4.7h1.8V2.9h1.8V1h16.5m-18.4 27.4h1.8v5.5h1.9v3.6h1.8v1.9h9.2v-1.9h1.8v-3.6h1.9v-5.5h1.8V13.8h-1.8V8.3h-1.9V4.7h-1.8V2.9h-9.2v1.8h-1.8v3.7h-1.9v5.5h-1.8v14.5M214.4 1v1.9h1.9v1.8h1.8v3.7h1.9v5.5h1.8v14.6H220V34h-1.9v3.6h-1.8v1.9h-1.9v1.8H198v-1.8h-1.8V1h18.2m-12.8 38.3h9.2v-1.9h1.8v-3.6h1.8v-5.5h1.9V13.8h-1.9V8.3h-1.8V4.7h-1.8V2.9h-9.2v36.4M178.7 1.1v3.7h1.8v5.4h1.9v10.9h1.8v9.1h1.8v10.9h-3.6v-5.5h-1.9v-5.5h-1.8v-1.8h-5.5v1.8h-1.8v9.1h-1.8V41H166v-1.8h1.9v-9.1h1.8v-1.8h-9.1v-1.8h-1.9v-1.8h-1.8V21h1.8v1.8h3.7v1.9h3.6v1.8h3.7V21h1.8V10.2h1.8V4.8h1.9V1.1h3.5m-5.4 25.5h5.5v-5.5H177V10.2h-1.8v10.9h-1.9v5.5M150.6 1.1v1.8h1.8v38.2h-3.6v-1.8h-1.9V21.1H136v20h-3.7v-1.8h-1.8V1.1h3.7v1.8h1.8v16.4h10.9V1.1h3.7m-29.6 0V3h1.8v36.3h1.8v1.8H121v-1.8h-1.8v-1.9h-1.9v1.9h-1.8v1.8h-10.9v-1.8h-1.9v-1.9h-1.8V1.1h3.7V3h1.8v34.5h1.8v1.9h5.5v-1.9h1.8v-1.8h1.8V1.1h3.7m-31.5 0v1.8h1.8v36.4h5.5v3.6H95v3.7h-1.8v1.8h-1.9v-7.3H69.4v7.3h-1.8v-1.8h-1.9v-3.7h-1.8v-3.6h5.5v-9.1h1.8v-9.1H73V10.2h1.9V4.7h1.8V1.1h12.8M73 39.3h12.8V2.9h-7.3v7.3h-1.8v10.9h-1.8v9.1H73v9.1M56.2 1.1v1.8H58v1.9h1.8v3.6h1.8v5.5h1.9v14.5h-1.9v5.5h-1.8v3.6H58v1.9h-1.8v1.8H39.7v-1.8h-1.8v-1.9h-1.8v-3.6h-1.9v-5.5h-1.8V13.8h1.8V8.4h1.9V4.8h1.8V2.9h1.8V1.1h16.5M37.9 28.4h1.8v5.5h1.8v3.6h1.9v1.9h9.1v-1.9h1.8v-3.6h1.9v-5.5H58V13.8h-1.8V8.4h-1.9V4.8h-1.8V2.9h-9.1v1.9h-1.9v3.6h-1.8v5.5h-1.8v14.5m-15-27.2V3h1.8v1.8h1.8v3.7h1.9v10.9h-1.9V23h-1.8v1.8h-3.6v1.8h-9.2v12.7h-1.8v1.8H4.6v-1.8h1.9V3H4.6V1.2h18.3m-11 23.6h7.3V23h1.9v-3.7h1.8V8.4h-1.8V4.8h-1.9V3h-7.3v21.8m267.2-14.7v1.8h-1.8v-1.8h1.8M166 32v7.3h-1.8V32h1.8M4.6 32v7.3H2.8v-1.8H1v-1.9-1.8h1.8V32h1.8m188.3 5.4v3.7h-3.7v-3.7h3.7m-66.4 0v1.9h-1.9v-1.9h1.9M280.1 0h-1-11-1v1 .9h-.8-1v1 .8h-.8-1v1 2.7h-.9-1v1 4.5h-.8-1v1 14.6 1h1 .8V34v1h1 .9v2.6 1h1 .8v.9 1h1 .8v.8 1h1 11 1v-1-.8h.9 1v-1-3.7-1h-1-1.9-1v1 .8h-.8-1v1 .9h-3.5v-.9-1h-1-.8V34v-1h-1-.9v-4.5-1h-1-.8V14.8h.8 1v-1-4.5h.9 1v-1-2.6h.8 1v-1-.8h3.5v1.6h-.8-1v1 3.7 1h1 .8v.8 1h1 1.8 1v-1-1.8-1-.9-.8h.9 1v-1-3.6-1h-1-.9V1 0h0zm-29.6 0h-1H233h-1v1 .9h-.8-1v1 .8h-.8-1v1 2.7h-.9-1v1 4.5h-.8-1v1 14.6 1h1 .8V34v1h1 .9v2.6 1h1 .8v.9 1h1 .8v.8 1h1 16.5 1v-1-.8h.8 1v-1-.9h.8 1v-1V35h.9 1v-1-4.5h.8 1v-1-14.7-1h-1-.8V8.3v-1h-1-.9V4.7v-1h-1-.8v-.8-1h-1-.8V1 0h0zm-12.9 3.9h7.2v.8 1h1 .8v2.7 1h1 .9v4.5 1h1 .8v12.6h-.8-1v1V33h-.9-1v1 2.6h-.8-1v1 .9h-7.2v-.9-1h-1-.8V34v-1h-1-.9v-4.5-1h-1-.8V14.8h.8 1v-1-4.5h.9 1v-1-2.6h.8 1v-1-.8h0zM215.4 0h-1-18.3-1v1 38.3 1h1 .8v.8 1h1 16.5 1v-1-.8h.9 1v-1-.9h.8 1v-1-2.6h.9 1v-1-4.5h.8 1v-1-14.5-1h-1-.8V8.3v-1h-1-.9V4.7v-1h-1-.8v-.8-1h-1-.9V1 0h0zm-12.8 3.9h7.2v.8 1h1 .8v2.7 1h1 .8v4.5 1h1 .9v12.6h-.9-1v1V33h-.8-1v1 2.6h-.8-1v1 .9h-7.2V3.9h0zM179.7.1h-1-3.6-1v1 2.7h-.9-1v1 4.4h-.8-1v1 9.9h-.8-1v1 4.5H167v-.8-1h-1-2.6v-.9-1h-1-2.7v-.8-1h-1-1.8-1v1 3.7 1h1 .8v.8 1h1 .9v.8 1h1 6.3v.8.8h-.9-1.8-1v1 7.3 1h1 .8v.8 1h1 3.7 1v-1-.8h.8 1v-1-8.1h.8 1v-1-.8h3.5v.8 1h1 .8v4.5 1h1 .9v4.5 1h1 3.6 1v-1-11-1h-1-.8v-8.1-1h-1-.8v-9.9-1h-1-.9V4.8v-1h-1-.8V1.1.1h-.1zm-3.6 22h.8.8v3.5h-3.5v-3.5h.9 1 0zM151.6.1h-1-3.7-1v1 17.2H137V2.9v-1h-1-.8v-.8-1h-1-3.7-1v1 38.2 1h1 .8v.8 1h1 3.7 1v-1-19h8.9v17.2 1h1 .9v.8 1h1 3.6 1v-1V2.9v-1h-1-.8v-.8-1h0zM122 .1h-1-3.7-1v1 33.5h-.8-1v1 .8h-.8-1v1 .9h-3.5v-.9-1h-1-.8V3 2h-1-.8v-.9-1h-1-3.7-1v1 36.3 1h1 .8v.9 1h1 .9v.8 1h1 10.9 1v-1-.8h.8 1 .9.8v.8 1h1 3.6 1v-1-.8h.9 1v-1-1.9-1h-1-1.9-.8V3 2h-1-.8v-.9-1h0zM90.5.1h-1-12.8-1v1 2.6h-.8-1v1 4.5H73h-1v1 9.9h-.8-1v1 8.1h-.8-1v1 8.1h-4.5-1v1 3.6 1h1 .8v2.7 1h1 .9v.8 1h1 1.8 1v-1-6.3h19.9v6.3 1h1 1.9 1v-1-.8h.8 1v-1-2.7h.8 1v-1-3.6-1h-1-4.5V2.9v-1h-1-.8v-.8-1h0zm-11 3.8h5.3v34.4H74v-7.1h.9 1v-1-8.1h.8 1v-1-9.9h.8 1v-1-6.3h0zM57.2.1h-1-16.5-1v1 .8h-.8-1v1 .9h-.8-1v1 2.6h-.9-1v1 4.5h-.8-1v1 14.5 1h1 .8v4.5 1h1 .9v2.6 1h1 .8v.9 1h1 .8v.8 1h1 16.5 1v-1-.8h.8 1v-1-.9h.8 1v-1-2.6h.8 1v-1-4.5h.9 1v-1-14.6-1h-1-.9V8.4v-1h-1-.8V4.8v-1h-1-.8v-.9-1h-1-.8v-.8-1h0zM44.4 3.9h7.1v.9 1h1 .8v2.6 1h1 .9v4.5 1h1 .8v12.5h-.8-1v1 4.5h-.9-1v1 2.6h-.8-1v1 .9h-7.1v-.9-1h-1-.9v-2.6-1h-1-.8v-4.5-1h-1-.8V14.8h.8 1v-1-4.4h.8 1v-1-2.6h.9 1v-1-.9h0zM23.9.2h-1H4.6h-1v1V3v1h1 .9v27h-.9-1.8-1v1 .8H1 0v1 1.8 1.9 1h1 .8v.8 1h1 .8v.8 1h1 5.5 1v-1-.8h.8 1v-1-11.7h8.2 1v-1-.8h2.6 1v-1-.8h.8 1v-1-2.7h.9 1v-1V8.4v-1h-1-.9V4.8v-1h-1-.8V3 2h-1-.8v-.8-1h0zM12.9 4h5.3v.8 1h1 .9v2.7 1h1 .8v8.9h-.8-1v1V22h-.9-1v1 .8h-5.3V4h0zm181 32.4h-1-3.7-1v1 3.7 1h1 3.7 1v-1-3.7-1h0z" fill="#3dfaff"/></svg>