<svg xmlns="http://www.w3.org/2000/svg" viewBox="0 0 600.74 98.44"><defs><style>.cls-1{fill:#494639;stroke:#3dfaff;stroke-miterlimit:10;stroke-width:0.74px;}</style></defs><g id="Layer_2" data-name="Layer 2"><g id="Layer_1-2" data-name="Layer 1"><path class="cls-1" d="M56.59,15.71V38.13H52.76v7.55H49V49.4H41.61v3.72H22.79V79.37H19.07v3.72H7.8V79.37H4.09V75.66H.37V68.1H4.09V64.39H7.8v15h3.84V4.45H7.8V.73H45.33V4.45H49V8.16h3.72v7.55Zm-15,30V38.13h3.72V15.71H41.61V8.16H37.77V4.45h-15V49.4h15V45.68Z"/><path class="cls-1" d="M133.56,26.86v30h-3.84V68.1H126v7.44h-3.71v3.83h-3.72v3.72H84.77V79.37H81.05V75.54H77.33V68.1H73.5V56.83H69.78v-30H73.5V15.59h3.83V8.16h3.72V4.33h3.72V.61h33.8V4.33h3.72V8.16H126v7.43h3.72V26.86Zm-11.27,0h-3.72V15.59h-3.83V8.16H111V4.33H92.32V8.16H88.48v7.43H84.77V26.86H81.05v30h3.72V68.1h3.71v7.44h3.84v3.83H111V75.54h3.72V68.1h3.83V56.83h3.72Z"/><path class="cls-1" d="M214.24,79.37V86.8h-3.72v7.56H206.8v3.71H203v-15H158v15H154.3V94.36h-3.84V86.8h-3.72V79.37H158V60.55h3.72V41.85h3.72V19.31h3.83V8H173V.61h26.25V4.33H203v75Zm-22.54,0v-75h-15v15H173V41.85h-3.72v18.7h-3.83V79.37Z"/><path class="cls-1" d="M265.19,79.37h3.71v3.72h-7.43V79.37h-3.72V75.54h-3.83v3.83H250.2v3.72H227.78V79.37H224V75.54h-3.72V.61h7.55V4.45h3.72V75.54h3.72v3.83h11.26V75.54h3.72V71.82h3.72V.61h7.55V4.45h3.72Zm7.55-3.83v3.83H268.9V75.54Z"/><path class="cls-1" d="M323.69,4.33V83.09h-7.44V79.37h-3.83V41.85H290V83.09h-7.55V79.37h-3.72V.61h7.55V4.33H290v33.8h22.42V.61H320V4.33Z"/><path class="cls-1" d="M389.38,60.55V83.09H382V71.82h-3.84V60.55H374.4V56.83H363.13v3.72h-3.72V79.37h-3.72v3.72h-7.55V79.37H352V60.55h3.71V56.83H337V53.12h-3.83V49.4h-3.72V41.85h3.72v3.72h7.55V49.4h7.43v3.72h7.55V41.85h3.72V19.31h3.72V8.16H367V.61h7.44V8.16h3.71V19.31H382V41.85h3.72v18.7ZM348.14,79.37h-3.71v-15h3.71ZM374.4,53.12V41.85h-3.72V19.31H367V41.85h-3.83V53.12Z"/><path class="cls-1" d="M410.12,83.09h-7.55V75.54h7.55Z"/><path class="cls-1" d="M472.34,26.74V56.83h-3.72V68.1h-3.83v7.44h-3.72v3.83h-3.84v3.72h-33.8V79.37h-3.72V.37h37.52V4.21h3.84V7.92h3.72v7.55h3.83V26.74Zm-11.27,0h-3.84V15.47h-3.71V7.92H449.8V4.21H431V79.37H449.8V75.54h3.72V68.1h3.71V56.83h3.84Z"/><path class="cls-1" d="M549.42,26.74V56.83h-3.71V68.1h-3.84v7.44h-3.72v3.83h-3.71v3.72H500.51V79.37h-3.72V75.54h-3.71V68.1h-3.84V56.83h-3.72V26.74h3.72V15.47h3.84V7.92h3.71V4.21h3.72V.37h33.93V4.21h3.71V7.92h3.72v7.55h3.84V26.74Zm-11.27,0h-3.71V15.47H530.6V7.92h-3.72V4.21H508.06V7.92h-3.71v7.55h-3.84V26.74h-3.72V56.83h3.72V68.1h3.84v7.44h3.71v3.83h18.82V75.54h3.72V68.1h3.84V56.83h3.71Z"/><path class="cls-1" d="M600.37,4.21v7.43h-3.84v3.83h-3.71v3.72H589.1V11.64h3.72V4.21H581.55V7.92h-3.72v7.55H574V26.74h-3.72V56.83H574V68.1h3.83v7.44h3.72v3.83h11.27V75.54h3.71V71.82h3.84v7.55h-3.84v3.72H574V79.37h-3.72V75.54h-3.72V68.1h-3.83V56.83H559V26.74h3.72V15.47h3.83V7.92h3.72V4.21H574V.37h22.53V4.21Zm-7.55,18.7V19.19h3.71v3.72Z"/></g></g></svg>
