<svg xmlns="http://www.w3.org/2000/svg" viewBox="0 0 606 108" xmlns:v="https://vecta.io/nano"><path d="M195 106.3V90.7h-44v15.6h-6.9v-3.9h-4v-7.8h-3.9V83.9H148V64.3h3.9V44.8h3.9V21.4h4V9.7h3.9V2h30.4v3.9h3.9v78h11.8v10.7H206v7.8h-4v3.9h-7zm-11.8-22.5v-75h-12.6v15.6h-3.9v23.4h-3.9v19.4h-4v16.6h24.4zm240.3 7v-4h-3.9v-85h42.2v4h4v3.9h3.9v7.8h4v11.7h3.9v34.3h-3.9v11.7h-4v7.7h-3.9v4h-4v3.9h-38.3zm27.5-7v-4h3.9v-7.7h3.9V60.4h4V32.1h-4V20.4H455v-7.8h-4V8.7h-16.7v75.1H451zm-96 7v-3.9h-4V68.3h6.9v15.6h1V64.3h3.9v-.9h-19.5v-3.9h-4v-3.9h-3.9V44.8h6.9v3.9h7.9v4h7.8v3.9h4.9V44.8h3.9V21.4h3.9V9.8h4V2h10.8v7.8h3.9v11.6h4v23.4h3.9v19.4h3.9v26.4h-10v-.9h-1V79h-4V67.3h-3.9v-3.9h-8.8v3.9h-3.9v19.6h-3.9v3.9H355zm27.3-34.3v-8.7h-3.9V24.4h-.9v23.4h-4v8.7h8.8zM9.2 90.8v-4H5.4V83H1.5V72.2h3.9v-3.9h6.9v15.6h1V9h-4V2.1h42.2V6h3.9v3.9h3.9v7.8h4V44h-4v7.8h-3.9v3.9h-7.8v3.9H27.9v27.3H24v3.9H9.2zm31.3-38.1v-3.9h4V41h3.9V20.7h-3.9v-7.9h-4V9H27.9v43.7h12.6zm533.5 38v-3.9h-4v-4h-3.9v-7.7h-4V63.4h-3.9V29.1h3.9V17.4h4V9.6h3.9V5.7h3.9v-4h26.5v4h4v10.7h-4v4h-3.9v.9h3.9v6.9h-6.9v-3.9h-3.9V13.5h3.9V8.7h-8.8v3.9H581v7.8h-4v11.7h-4v28.3h3.9v11.7h4v7.7h3.9v4h8.8v-4h3.9V76h7v10.8h-4v3.9H574zm-75.5 0v-3.9h-3.9v-4h-3.9v-7.7h-4V63.4h-3.9V29.1h3.9V17.4h4V9.6h3.9V5.7h3.9v-4h38.4v4h3.9v3.9h3.9v7.8h4v11.7h3.9v34.3h-3.9v11.7h-4v7.7h-3.9v4h-3.9v3.9h-38.4zm27.5-6.9v-4h3.9v-7.7h4V60.4h3.9V32.2H534V20.4h-4v-7.8h-4V8.7h-16.7v3.9h-3.9v7.8h-4v11.7h-3.9v28.3h3.9v11.7h4v7.7h3.9v4H526zm-121.2 6.9V79.9h10.9v10.8h-10.9zm-86.6 0v-3.9h-4v-39h-20.4v42.8h-9.9v-.9h-1v-2.9H279V2h10.9v3.9h3.9V41h20.4V2H325v3.9h3.9v84.8h-10.7zm-59.6 0v-3.9h-3.9v-4h-1v4h-3.9v3.9h-26.4v-3.9h-4v-4h-3.9V2h10.9v4h3.9v73.8h3.9v4h8.7v-4h3.9V76h3.9V2h10.9v4h3.9v77.8h.9v-4h7v7h-4v3.9h-10.8zm-174.2 0v-3.9h-3.9v-4h-3.9v-7.7h-4V63.4h-3.9V29.3h3.9V17.6h4V9.8h3.9v-4h3.9V2h38.3v3.9h3.9v4h3.9v7.7h3.9v11.7h4v34.1h-4v11.7h-3.9v7.7h-3.9v4h-3.9v3.9H84.4zm27.4-7v-3.9h3.9v-7.7h4V60.4h3.9V32.3h-3.9V20.6h-4v-7.8h-3.9v-4H95.2v4h-4v7.7h-3.9v11.7h-3.9v28.1h3.9V72h3.9v7.7h4v4h16.6z" fill="#494639"/><path d="M599.4 2.7v4h4v8.7h-4v4h-3.9v2.9h3.9v4.9h-4.9v-3.9h-3.9v-8.8h3.9V7.7h-10.8v3.9h-3.8v7.8h-4v11.7H572v30.3h3.9v11.7h4v7.7h3.9v4h10.8v-4h3.9V77h5v8.8h-4v3.9h-24.6v-3.9H571v-4h-3.9v-7.7h-4V62.4h-3.9V30.1h3.9V18.4h4v-7.8h3.9V6.7h3.9v-4h24.5m-63.6 0v4h3.9v3.9h3.9v7.8h4v11.7h3.9v32.3h-3.9v11.7h-4v7.7h-3.9v4h-3.9v3.9h-36.4v-3.9h-3.9v-4h-3.9v-7.7h-4V62.4h-3.9V30.1h3.9V18.4h4v-7.8h3.9V6.7h3.9v-4h36.4m-39.3 58.7h3.9v11.7h4v7.7h3.9v4H527v-4h3.9v-7.7h4V61.4h3.9V31.2h-3.9V19.4h-4v-7.8H527V7.7h-18.7v3.9h-3.9v7.8h-4v11.7h-3.9v30.3M460.9 2.8v4h4v3.9h3.9v7.8h4v11.7h3.9v32.3h-3.9v11.7h-4v7.7h-3.9v4h-4v3.9h-36.3v-.1-3.9h-3.9v-83h40.2m-27.5 82H452h0 0v-4h3.9v-7.7h3.9V61.4h4V31.1h-4V19.4H456v-7.8h-4V7.7h-18.7v77.1M384.5 3v7.8h3.9v11.6h4v23.4h3.9v19.4h3.9v24.4h-9V78h-4V66.3h-3.9v-3.9h-10.8v3.9h-3.9v19.6h-3.9v3.9H356v-3.9h-4V69.3h4.9v15.6h3V65.3h3.9v-2.9h-19.5v-3.9h-4v-3.9h-3.9v-8.8h4.9v3.9h7.9v4h7.8v3.9h6.9V45.8h3.9V22.4h3.9V10.8h4V3h8.8m-12 54.5h10.8V46.8h-3.9V23.4h-2.9v23.4h-4v10.7M324 3v3.9h3.9v82.8h-8.8v-3.9h-4v-39h-22.4v42.8h-8.9v-3.8H280V3h8.9v3.9h3.9V42h22.4V3h8.8m-63.4 0v4h3.9v77.8h2.9v-4h5v5h-4v3.9h-8.8v-3.9h-3.9v-4h-3v4h-3.9v3.9h-24.4v-3.9h-4v-4h-3.9V3h8.9v4h3.9v73.8h3.9v4h10.7v-4h3.9V77h3.9V3h8.9m-67.5 0v3.9h3.9v78h11.8v8.7h-3.9v7.8h-4v3.9h-5v-.1-15.5H150v15.6h-4.9v-3.9h-4v-7.8h-3.9v-8.7H149V65.3h3.9V45.8h3.9V22.4h4V10.7h3.9V3h28.4m-35.2 81.8h26.4v-77h-14.6v15.6h-3.9v23.4h-3.9v19.4h-4v18.6M121.7 3v3.9h3.9v4h3.9v7.7h3.9v11.7h4v32.1h-4v11.7h-3.9v7.7h-3.9v4h-3.9v3.9H85.3v-3.9h-3.9v-4h-3.9v-7.7h-4V62.4h-3.9V30.3h3.9V18.6h4v-7.8h3.9v-4h3.9V3h36.4M82.4 61.3h3.9V73h3.9v7.7h4v4h18.5v.1-.1-3.9h3.9v-7.7h4V61.4h3.9V31.3h-3.9V19.6h-4v-7.8h-3.9v-4H94.2v4h-4v7.7h-3.9v11.7h-3.9v30.1M50.5 3.1V7h3.9v3.9h3.9v7.8h4V43h-4v7.8h-3.9v3.9h-7.8v3.9H26.9v27.3H23v3.9H10.2v-.1-3.9H6.3V82H2.5v-8.8h3.9v-3.9h4.9v15.6h3V8h-4V3.1h40.2M26.9 53.7h14.7v-3.9h4V42h3.9V19.7h-3.9v-7.9h-4V8H26.9v45.7m387.7 27.2v8.8h-8.9v-8.8h8.9m-23.4 8.7h0 0 0m-107.3 0h0 0M601.4.7h-2-24.5-2v2 2H571h-2v2 1.9h-1.9-2v2 5.8h-2-2v2 9.7h-1.9-2v2 32.3 2h2 1.9v9.7 2h2 2v5.7 2h2 1.9v2 2h2 1.9v1.9 2h2 24.6 2v-2-1.9h2 2v-2V77v-2h-2-5-2v2 1.8h-1.9-2v2 2h-6.8v-2-2h-2-1.9v-5.7-2h-2-2v-9.7-2h-2-1.9V33.1h1.9 2v-2-9.7h2 2v-2-5.8h1.8 2v-2-1.9h6.8v2.8h-1.9-2v2 8.8 2h2 1.9v1.9 2h2 4.9 2v-2-4.9-.9-2-2h2 2v-2-8.7-2h-2-2v-2-2h0zm-63.6 0h-2-36.4-2v2 2h-1.9-2v2 1.9h-1.9-2v2 5.8h-2-2v2 9.7h-1.9-2v2 32.3 2h2 1.9v9.7 2h2 2v5.7 2h2 1.9v2 2h2 1.9v1.9 2h2 36.4 2v-2-1.9h1.9 2v-2-2h1.9 2v-2-5.7h2 2v-2-9.7h1.9 2v-2-32.3-2h-2-1.9v-9.7-2h-2-2v-5.8-2h-2-1.9V6.7v-2h-2-1.9v-2-2h0zm-27.5 9H525v1.9 2h2 1.9v5.8 2h2 2v9.8 2h2 1.9v26.2h-1.9-2v2 9.7h-2-2v2 5.7H527h-2v2 2h-14.7v-2-2h-2-1.9v-5.7-2h-2-2v-9.7-2h-2-1.9V33.1h1.9 2v-2-9.7h2 2v-2-5.8h1.9 2v-2-1.9h0zM462.9.8h-2-40.2-2v2 83 2h2 1.9v1.9.1 2h2 36.3 2v-2-1.9h2 2v-2-2h1.9 2v-2-5.7h2 2v-2-9.7h1.9 2v-2-32.3-2h-2-1.9v-9.7-2h-2-2v-5.8-2h-2-1.9V6.8v-2h-2-2v-2-2h0zm-27.5 8.9H450v1.9 2h2 1.9v5.8 2h2 1.9v9.7 2h2 2v26.3h-2-2v2 9.7h-1.9-2v2 5.7H452h-2v2 2h-14.7V9.7h.1zM386.5 1h-2-8.8-2v2 5.8h-2-2v2 9.6h-1.9-2v2 21.4h-1.9-2v2 9.8H359v-1.9-2h-2-5.8v-2-2h-2-5.9v-1.9-2h-2-4.9-2v2 8.8 2h2 1.9v1.9 2h2 2v1.9 2h2H358v.9 2h-1-5-2v2 16.6 2h2 1.9v1.9 2h2 8.8 2v-2-1.9h1.9 2v-2-17.6h1.9 2v-2-1.9h6.8v1.9 2h2 1.9V78v2h2 2v9.6 2h2 9 2v-2-24.4-2h-2-1.9V45.8v-2h-2-1.9V22.4v-2h-2-2v-9.6-2h-2-1.9V3 1h0zm-8 47.8h.9 1.9v6.7h-6.8v-6.7h2 2 0zM326 1h-2-8.9-2v2 37h-18.4V6.9v-2h-2-1.9V3 1h-2-8.8-2v2 82.8 2h2 1.9v1.8 2h2 8.9 2v-2-40.8h18.4v37 2h2 2v1.9 2h2 8.8 2v-2V6.9v-2h-2-2V3 1h0zm-63.4 0h-2-8.9-2v2 72h-1.9-2v2 1.8h-1.9-2v2 2h-6.7v-2-2h-2-1.9V7 5h-2-1.9V3 1h-2-8.9-2v2 78.8 2h2 1.9v2 2h2 2v1.9 2h2 24.4 2v-2-1.9h1.9 2 1 1.9v1.9 2h2 8.8 2v-2-1.9h2 2v-2-5-2h-2-5-.9V7 5h-2-1.9V3 1h0zm-67.5 0h-2-28.4-2v2 5.7h-1.9-2v2 9.7h-2-2v2 21.4h-1.9-2v2 17.5H149h-2v2 17.6h-9.8-2v2 8.7 2h2 1.9v5.8 2h2 2v1.9 2h2 4.9 2v-2-13.6h41.9v13.5.1 2h2 5 2v-2-1.9h2 2v-2-5.8h1.9 2v-2-8.7-2h-2-9.8v-76-2h-2-1.9V3 1h0zm-23.5 8.8h10.6v73h-22.4V68.2h2 2v-2-17.4h1.9 2v-2-21.4h1.9 2v-2V9.8h0zM123.7 1h-2-36.4-2v2 1.8h-1.9-2v2 2h-1.9-2v2 5.8h-2-2v2 9.7h-1.9-2v2 32.1 2h2 1.9v9.7 2h2 2v5.7 2h2 1.9v2 2h2 1.9v1.9 2h2 36.3 2v-2-1.9h1.9 2v-2-2h1.9 2v-2-5.7h1.9 2v-2-9.7h2 2v-2-32.1-2h-2-2v-9.7-2h-2-1.9v-5.7-2h-2-1.9v-2-2h-2-1.9V3 1h.1zM96.2 9.8h14.5v2 2h2 1.9v5.8 2h2 2v9.7 2h2 1.9v26.1h-1.9-2v2 9.7h-2-2v2 5.7h-1.9-2v2 1.9H96.2v-2-2h-2-2V73v-2h-2-1.9v-9.7-2h-2-1.9V33.2h1.9 2v-2-9.7h1.9 2v-2-5.7h2 2v-2-2h0zM52.5 1.1h-2-40.3-2v2V8v2h2 2v57.3h-1-4.9-2v2 1.9H2.5.5v2V82v2h2 1.9v1.8 2h2 1.9v1.9.1 2h2H23h2v-2-1.9h1.9 2v-2-25.3h17.7 2v-2-1.9h5.8 2v-2-1.9h1.9 2v-2V45h2 2v-2-24.3-2h-2-2v-5.8-2h-2-1.9V7 5h-2-1.9V3.1v-2h0zM28.9 10h10.7v1.8 2h2 2v5.9 2h2 1.9V40h-1.9-2v2 5.8h-2-2v2 1.9H28.9V10h0zm387.7 68.9h-2-8.9-2v2 8.8 2h2 8.9 2v-2-8.8-2h0z" fill="#3dfaff"/></svg>