<svg width="282" height="50" viewBox="0 0 282 50" fill="none" xmlns="http://www.w3.org/2000/svg">
<mask id="path-1-outside-1" maskUnits="userSpaceOnUse" x="0" y="0" width="282" height="50" fill="black">
<rect fill="white" width="282" height="50"/>
<path d="M26.5254 8.43863V4.77743H24.7146V2.97589H22.9039V1.17434H4.62145V2.97589H6.49058V39.2973H4.62145V32.0331H2.81072V33.8346H1V35.6361V37.4958H2.81072V39.2973H4.62145V41.0989H10.112V39.2973H11.9228V26.5703H21.0932V24.7688H24.7146V22.9672H26.5254V19.306H28.3945V8.43863H26.5254ZM19.2241 22.9672V24.7688H11.9228V2.97589H19.2241V4.77743H21.0932V8.43863H22.9039V19.306H21.0932V22.9672H19.2241Z"/>
<path d="M61.5934 13.8433V8.38052H59.7826V4.77743H57.9719V2.91778H56.1612V1.11623H39.6895V2.91778H37.8787V4.77743H36.068V8.38052H34.1989V13.8433H32.3882V28.3718H34.1989V33.8346H36.068V37.4377H37.8787V39.2973H39.6895V41.0989H56.1612V39.2973H57.9719V37.4377H59.7826V33.8346H61.5934V28.3718H63.4625V13.8433H61.5934ZM57.9719 28.3718H56.1612V33.8346H54.2921V37.4377H52.4813V39.2973H43.3693V37.4377H41.5002V33.8346H39.6895V28.3718H37.8787V13.8433H39.6895V8.38052H41.5002V4.77743H43.3693V2.91778H52.4813V4.77743H54.2921V8.38052H56.1612V13.8433H57.9719V28.3718Z"/>
<path d="M91.3168 39.2973V2.91778H89.5061V1.11623H76.7142V4.71932H74.9035V10.1821H73.0344V21.1076H71.2236V30.1734H69.4129V39.2973H63.9223V42.9004H65.7331V46.5616H67.6022V48.3632H69.4129V41.0989H91.3168V48.3632H93.186V46.5616H94.9967V42.9004H96.8074V39.2973H91.3168ZM73.0344 39.2973V30.1734H74.9035V21.1076H76.7142V10.1821H78.5249V2.91778H85.8263V39.2973H73.0344Z"/>
<path d="M124.639 37.4377V39.2973H126.508V37.4377H124.639ZM122.828 2.97589H121.017V1.11623H117.337V35.6361H115.527V37.4377H113.716V39.2973H108.225V37.4377H106.415V2.97589H104.604V1.11623H100.924V37.4377H102.735V39.2973H104.604V41.0989H115.527V39.2973H117.337V37.4377H119.206V39.2973H121.017V41.0989H124.639V39.2973H122.828V2.97589Z"/>
<path d="M150.605 2.91778V1.11623H146.925V19.306H136.002V2.91778H134.192V1.11623H130.512V39.2973H132.323V41.0989H136.002V21.1076H146.925V39.2973H148.794V41.0989H152.416V2.91778H150.605Z"/>
<path d="M165.951 32.0331H164.14V39.2973H165.951V32.0331ZM184.233 30.1734V21.1076H182.423V10.1821H180.553V4.77743H178.743V1.11623H175.121V4.77743H173.252V10.1821H171.441V21.1076H169.631V26.5703H165.951V24.7688H162.329V22.9091H158.649V21.1076H156.839V24.7688H158.649V26.5703H160.519V28.3718H169.631V30.1734H167.82V39.2973H165.951V41.0989H169.631V39.2973H171.441V30.1734H173.252V28.3718H178.743V30.1734H180.553V35.6361H182.423V41.0989H186.044V30.1734H184.233ZM173.252 26.5703V21.1076H175.121V10.1821H176.932V21.1076H178.743V26.5703H173.252Z"/>
<path d="M192.866 37.4377H189.186V41.0989H192.866V37.4377Z"/>
<path d="M219.98 13.7852V8.32241H218.111V4.6612H216.3V2.85966H214.431V1H196.149V39.2973H197.959V41.0989H214.431V39.2973H216.3V37.4377H218.111V33.8346H219.98V28.3718H221.791V13.7852H219.98ZM216.3 28.3718H214.431V33.8346H212.62V37.4377H210.81V39.2973H201.639V2.85966H210.81V4.6612H212.62V8.32241H214.431V13.7852H216.3V28.3718Z"/>
<path d="M254.962 13.7852V8.32241H253.093V4.6612H251.282V2.85966H249.472V1H232.941V2.85966H231.131V4.6612H229.32V8.32241H227.451V13.7852H225.64V28.3718H227.451V33.8346H229.32V37.4377H231.131V39.2973H232.941V41.0989H249.472V39.2973H251.282V37.4377H253.093V33.8346H254.962V28.3718H256.773V13.7852H254.962ZM251.282 28.3718H249.472V33.8346H247.602V37.4377H245.792V39.2973H236.621V37.4377H234.811V33.8346H232.941V28.3718H231.131V13.7852H232.941V8.32241H234.811V4.6612H236.621V2.85966H245.792V4.6612H247.602V8.32241H249.472V13.7852H251.282V28.3718Z"/>
<path d="M279.131 2.85966V1H268.15V2.85966H266.339V4.6612H264.528V8.32241H262.659V13.7852H260.848V28.3718H262.659V33.8346H264.528V37.4377H266.339V39.2973H268.15V41.0989H279.131V39.2973H281V35.6361H279.131V37.4377H277.32V39.2973H271.83V37.4377H270.019V33.8346H268.15V28.3718H266.339V13.7852H268.15V8.32241H270.019V4.6612H271.83V2.85966H277.32V6.46275H275.509V10.1239H277.32V8.32241H279.131V6.46275H281V2.85966H279.131ZM279.131 11.9255V10.1239H277.32V11.9255H279.131Z"/>
</mask>
<path d="M26.5254 8.43863V4.77743H24.7146V2.97589H22.9039V1.17434H4.62145V2.97589H6.49058V39.2973H4.62145V32.0331H2.81072V33.8346H1V35.6361V37.4958H2.81072V39.2973H4.62145V41.0989H10.112V39.2973H11.9228V26.5703H21.0932V24.7688H24.7146V22.9672H26.5254V19.306H28.3945V8.43863H26.5254ZM19.2241 22.9672V24.7688H11.9228V2.97589H19.2241V4.77743H21.0932V8.43863H22.9039V19.306H21.0932V22.9672H19.2241Z" fill="#494639"/>
<path d="M61.5934 13.8433V8.38052H59.7826V4.77743H57.9719V2.91778H56.1612V1.11623H39.6895V2.91778H37.8787V4.77743H36.068V8.38052H34.1989V13.8433H32.3882V28.3718H34.1989V33.8346H36.068V37.4377H37.8787V39.2973H39.6895V41.0989H56.1612V39.2973H57.9719V37.4377H59.7826V33.8346H61.5934V28.3718H63.4625V13.8433H61.5934ZM57.9719 28.3718H56.1612V33.8346H54.2921V37.4377H52.4813V39.2973H43.3693V37.4377H41.5002V33.8346H39.6895V28.3718H37.8787V13.8433H39.6895V8.38052H41.5002V4.77743H43.3693V2.91778H52.4813V4.77743H54.2921V8.38052H56.1612V13.8433H57.9719V28.3718Z" fill="#494639"/>
<path d="M91.3168 39.2973V2.91778H89.5061V1.11623H76.7142V4.71932H74.9035V10.1821H73.0344V21.1076H71.2236V30.1734H69.4129V39.2973H63.9223V42.9004H65.7331V46.5616H67.6022V48.3632H69.4129V41.0989H91.3168V48.3632H93.186V46.5616H94.9967V42.9004H96.8074V39.2973H91.3168ZM73.0344 39.2973V30.1734H74.9035V21.1076H76.7142V10.1821H78.5249V2.91778H85.8263V39.2973H73.0344Z" fill="#494639"/>
<path d="M124.639 37.4377V39.2973H126.508V37.4377H124.639ZM122.828 2.97589H121.017V1.11623H117.337V35.6361H115.527V37.4377H113.716V39.2973H108.225V37.4377H106.415V2.97589H104.604V1.11623H100.924V37.4377H102.735V39.2973H104.604V41.0989H115.527V39.2973H117.337V37.4377H119.206V39.2973H121.017V41.0989H124.639V39.2973H122.828V2.97589Z" fill="#494639"/>
<path d="M150.605 2.91778V1.11623H146.925V19.306H136.002V2.91778H134.192V1.11623H130.512V39.2973H132.323V41.0989H136.002V21.1076H146.925V39.2973H148.794V41.0989H152.416V2.91778H150.605Z" fill="#494639"/>
<path d="M165.951 32.0331H164.14V39.2973H165.951V32.0331ZM184.233 30.1734V21.1076H182.423V10.1821H180.553V4.77743H178.743V1.11623H175.121V4.77743H173.252V10.1821H171.441V21.1076H169.631V26.5703H165.951V24.7688H162.329V22.9091H158.649V21.1076H156.839V24.7688H158.649V26.5703H160.519V28.3718H169.631V30.1734H167.82V39.2973H165.951V41.0989H169.631V39.2973H171.441V30.1734H173.252V28.3718H178.743V30.1734H180.553V35.6361H182.423V41.0989H186.044V30.1734H184.233ZM173.252 26.5703V21.1076H175.121V10.1821H176.932V21.1076H178.743V26.5703H173.252Z" fill="#494639"/>
<path d="M192.866 37.4377H189.186V41.0989H192.866V37.4377Z" fill="#494639"/>
<path d="M219.98 13.7852V8.32241H218.111V4.6612H216.3V2.85966H214.431V1H196.149V39.2973H197.959V41.0989H214.431V39.2973H216.3V37.4377H218.111V33.8346H219.98V28.3718H221.791V13.7852H219.98ZM216.3 28.3718H214.431V33.8346H212.62V37.4377H210.81V39.2973H201.639V2.85966H210.81V4.6612H212.62V8.32241H214.431V13.7852H216.3V28.3718Z" fill="#494639"/>
<path d="M254.962 13.7852V8.32241H253.093V4.6612H251.282V2.85966H249.472V1H232.941V2.85966H231.131V4.6612H229.32V8.32241H227.451V13.7852H225.64V28.3718H227.451V33.8346H229.32V37.4377H231.131V39.2973H232.941V41.0989H249.472V39.2973H251.282V37.4377H253.093V33.8346H254.962V28.3718H256.773V13.7852H254.962ZM251.282 28.3718H249.472V33.8346H247.602V37.4377H245.792V39.2973H236.621V37.4377H234.811V33.8346H232.941V28.3718H231.131V13.7852H232.941V8.32241H234.811V4.6612H236.621V2.85966H245.792V4.6612H247.602V8.32241H249.472V13.7852H251.282V28.3718Z" fill="#494639"/>
<path d="M279.131 2.85966V1H268.15V2.85966H266.339V4.6612H264.528V8.32241H262.659V13.7852H260.848V28.3718H262.659V33.8346H264.528V37.4377H266.339V39.2973H268.15V41.0989H279.131V39.2973H281V35.6361H279.131V37.4377H277.32V39.2973H271.83V37.4377H270.019V33.8346H268.15V28.3718H266.339V13.7852H268.15V8.32241H270.019V4.6612H271.83V2.85966H277.32V6.46275H275.509V10.1239H277.32V8.32241H279.131V6.46275H281V2.85966H279.131ZM279.131 11.9255V10.1239H277.32V11.9255H279.131Z" fill="#494639"/>
<path d="M26.5254 8.43863H25.5254V9.43863H26.5254V8.43863ZM26.5254 4.77743H27.5254V3.77743H26.5254V4.77743ZM24.7146 4.77743H23.7146V5.77743H24.7146V4.77743ZM24.7146 2.97589H25.7146V1.97589H24.7146V2.97589ZM22.9039 2.97589H21.9039V3.97589H22.9039V2.97589ZM22.9039 1.17434H23.9039V0.174344H22.9039V1.17434ZM4.62145 1.17434V0.174344H3.62145V1.17434H4.62145ZM4.62145 2.97589H3.62145V3.97589H4.62145V2.97589ZM6.49058 2.97589H7.49058V1.97589H6.49058V2.97589ZM6.49058 39.2973V40.2973H7.49058V39.2973H6.49058ZM4.62145 32.0331H5.62145V31.0331H4.62145V32.0331ZM2.81072 32.0331V31.0331H1.81072V32.0331H2.81072ZM2.81072 33.8346V34.8346H3.81072V33.8346H2.81072ZM1 33.8346V32.8346H0V33.8346H1ZM1 37.4958H0V38.4958H1V37.4958ZM2.81072 37.4958H3.81072V36.4958H2.81072V37.4958ZM2.81072 39.2973H1.81072V40.2973H2.81072V39.2973ZM4.62145 41.0989H3.62145V42.0989H4.62145V41.0989ZM10.112 41.0989V42.0989H11.112V41.0989H10.112ZM10.112 39.2973V38.2973H9.11203V39.2973H10.112ZM11.9228 39.2973V40.2973H12.9228V39.2973H11.9228ZM11.9228 26.5703V25.5703H10.9228V26.5703H11.9228ZM21.0932 26.5703V27.5703H22.0932V26.5703H21.0932ZM21.0932 24.7688V23.7688H20.0932V24.7688H21.0932ZM24.7146 24.7688V25.7688H25.7146V24.7688H24.7146ZM24.7146 22.9672V21.9672H23.7146V22.9672H24.7146ZM26.5254 22.9672V23.9672H27.5254V22.9672H26.5254ZM26.5254 19.306V18.306H25.5254V19.306H26.5254ZM28.3945 19.306V20.306H29.3945V19.306H28.3945ZM28.3945 8.43863H29.3945V7.43863H28.3945V8.43863ZM19.2241 22.9672V21.9672H18.2241V22.9672H19.2241ZM19.2241 24.7688V25.7688H20.2241V24.7688H19.2241ZM11.9228 24.7688H10.9228V25.7688H11.9228V24.7688ZM11.9228 2.97589V1.97589H10.9228V2.97589H11.9228ZM19.2241 2.97589H20.2241V1.97589H19.2241V2.97589ZM19.2241 4.77743H18.2241V5.77743H19.2241V4.77743ZM21.0932 4.77743H22.0932V3.77743H21.0932V4.77743ZM21.0932 8.43863H20.0932V9.43863H21.0932V8.43863ZM22.9039 8.43863H23.9039V7.43863H22.9039V8.43863ZM22.9039 19.306V20.306H23.9039V19.306H22.9039ZM21.0932 19.306V18.306H20.0932V19.306H21.0932ZM21.0932 22.9672V23.9672H22.0932V22.9672H21.0932ZM61.5934 13.8433H60.5934V14.8433H61.5934V13.8433ZM61.5934 8.38052H62.5934V7.38052H61.5934V8.38052ZM59.7826 8.38052H58.7826V9.38052H59.7826V8.38052ZM59.7826 4.77743H60.7826V3.77743H59.7826V4.77743ZM57.9719 4.77743H56.9719V5.77743H57.9719V4.77743ZM57.9719 2.91778H58.9719V1.91778H57.9719V2.91778ZM56.1612 2.91778H55.1612V3.91778H56.1612V2.91778ZM56.1612 1.11623H57.1612V0.116231H56.1612V1.11623ZM39.6895 1.11623V0.116231H38.6895V1.11623H39.6895ZM39.6895 2.91778V3.91778H40.6895V2.91778H39.6895ZM37.8787 2.91778V1.91778H36.8787V2.91778H37.8787ZM37.8787 4.77743V5.77743H38.8787V4.77743H37.8787ZM36.068 4.77743V3.77743H35.068V4.77743H36.068ZM36.068 8.38052V9.38052H37.068V8.38052H36.068ZM34.1989 8.38052V7.38052H33.1989V8.38052H34.1989ZM34.1989 13.8433V14.8433H35.1989V13.8433H34.1989ZM32.3882 13.8433V12.8433H31.3882V13.8433H32.3882ZM32.3882 28.3718H31.3882V29.3718H32.3882V28.3718ZM34.1989 28.3718H35.1989V27.3718H34.1989V28.3718ZM34.1989 33.8346H33.1989V34.8346H34.1989V33.8346ZM36.068 33.8346H37.068V32.8346H36.068V33.8346ZM36.068 37.4377H35.068V38.4377H36.068V37.4377ZM37.8787 37.4377H38.8787V36.4377H37.8787V37.4377ZM37.8787 39.2973H36.8787V40.2973H37.8787V39.2973ZM39.6895 39.2973H40.6895V38.2973H39.6895V39.2973ZM39.6895 41.0989H38.6895V42.0989H39.6895V41.0989ZM56.1612 41.0989V42.0989H57.1612V41.0989H56.1612ZM56.1612 39.2973V38.2973H55.1612V39.2973H56.1612ZM57.9719 39.2973V40.2973H58.9719V39.2973H57.9719ZM57.9719 37.4377V36.4377H56.9719V37.4377H57.9719ZM59.7826 37.4377V38.4377H60.7826V37.4377H59.7826ZM59.7826 33.8346V32.8346H58.7826V33.8346H59.7826ZM61.5934 33.8346V34.8346H62.5934V33.8346H61.5934ZM61.5934 28.3718V27.3718H60.5934V28.3718H61.5934ZM63.4625 28.3718V29.3718H64.4625V28.3718H63.4625ZM63.4625 13.8433H64.4625V12.8433H63.4625V13.8433ZM57.9719 28.3718V29.3718H58.9719V28.3718H57.9719ZM56.1612 28.3718V27.3718H55.1612V28.3718H56.1612ZM56.1612 33.8346V34.8346H57.1612V33.8346H56.1612ZM54.2921 33.8346V32.8346H53.2921V33.8346H54.2921ZM54.2921 37.4377V38.4377H55.2921V37.4377H54.2921ZM52.4813 37.4377V36.4377H51.4813V37.4377H52.4813ZM52.4813 39.2973V40.2973H53.4813V39.2973H52.4813ZM43.3693 39.2973H42.3693V40.2973H43.3693V39.2973ZM43.3693 37.4377H44.3693V36.4377H43.3693V37.4377ZM41.5002 37.4377H40.5002V38.4377H41.5002V37.4377ZM41.5002 33.8346H42.5002V32.8346H41.5002V33.8346ZM39.6895 33.8346H38.6895V34.8346H39.6895V33.8346ZM39.6895 28.3718H40.6895V27.3718H39.6895V28.3718ZM37.8787 28.3718H36.8787V29.3718H37.8787V28.3718ZM37.8787 13.8433V12.8433H36.8787V13.8433H37.8787ZM39.6895 13.8433V14.8433H40.6895V13.8433H39.6895ZM39.6895 8.38052V7.38052H38.6895V8.38052H39.6895ZM41.5002 8.38052V9.38052H42.5002V8.38052H41.5002ZM41.5002 4.77743V3.77743H40.5002V4.77743H41.5002ZM43.3693 4.77743V5.77743H44.3693V4.77743H43.3693ZM43.3693 2.91778V1.91778H42.3693V2.91778H43.3693ZM52.4813 2.91778H53.4813V1.91778H52.4813V2.91778ZM52.4813 4.77743H51.4813V5.77743H52.4813V4.77743ZM54.2921 4.77743H55.2921V3.77743H54.2921V4.77743ZM54.2921 8.38052H53.2921V9.38052H54.2921V8.38052ZM56.1612 8.38052H57.1612V7.38052H56.1612V8.38052ZM56.1612 13.8433H55.1612V14.8433H56.1612V13.8433ZM57.9719 13.8433H58.9719V12.8433H57.9719V13.8433ZM91.3168 39.2973H90.3168V40.2973H91.3168V39.2973ZM91.3168 2.91778H92.3168V1.91778H91.3168V2.91778ZM89.5061 2.91778H88.5061V3.91778H89.5061V2.91778ZM89.5061 1.11623H90.5061V0.116231H89.5061V1.11623ZM76.7142 1.11623V0.116231H75.7142V1.11623H76.7142ZM76.7142 4.71932V5.71932H77.7142V4.71932H76.7142ZM74.9035 4.71932V3.71932H73.9035V4.71932H74.9035ZM74.9035 10.1821V11.1821H75.9035V10.1821H74.9035ZM73.0344 10.1821V9.18207H72.0344V10.1821H73.0344ZM73.0344 21.1076V22.1076H74.0344V21.1076H73.0344ZM71.2236 21.1076V20.1076H70.2236V21.1076H71.2236ZM71.2236 30.1734V31.1734H72.2236V30.1734H71.2236ZM69.4129 30.1734V29.1734H68.4129V30.1734H69.4129ZM69.4129 39.2973V40.2973H70.4129V39.2973H69.4129ZM63.9223 39.2973V38.2973H62.9223V39.2973H63.9223ZM63.9223 42.9004H62.9223V43.9004H63.9223V42.9004ZM65.7331 42.9004H66.7331V41.9004H65.7331V42.9004ZM65.7331 46.5616H64.7331V47.5616H65.7331V46.5616ZM67.6022 46.5616H68.6022V45.5616H67.6022V46.5616ZM67.6022 48.3632H66.6022V49.3632H67.6022V48.3632ZM69.4129 48.3632V49.3632H70.4129V48.3632H69.4129ZM69.4129 41.0989V40.0989H68.4129V41.0989H69.4129ZM91.3168 41.0989H92.3168V40.0989H91.3168V41.0989ZM91.3168 48.3632H90.3168V49.3632H91.3168V48.3632ZM93.186 48.3632V49.3632H94.186V48.3632H93.186ZM93.186 46.5616V45.5616H92.186V46.5616H93.186ZM94.9967 46.5616V47.5616H95.9967V46.5616H94.9967ZM94.9967 42.9004V41.9004H93.9967V42.9004H94.9967ZM96.8074 42.9004V43.9004H97.8074V42.9004H96.8074ZM96.8074 39.2973H97.8074V38.2973H96.8074V39.2973ZM73.0344 39.2973H72.0344V40.2973H73.0344V39.2973ZM73.0344 30.1734V29.1734H72.0344V30.1734H73.0344ZM74.9035 30.1734V31.1734H75.9035V30.1734H74.9035ZM74.9035 21.1076V20.1076H73.9035V21.1076H74.9035ZM76.7142 21.1076V22.1076H77.7142V21.1076H76.7142ZM76.7142 10.1821V9.18207H75.7142V10.1821H76.7142ZM78.5249 10.1821V11.1821H79.5249V10.1821H78.5249ZM78.5249 2.91778V1.91778H77.5249V2.91778H78.5249ZM85.8263 2.91778H86.8263V1.91778H85.8263V2.91778ZM85.8263 39.2973V40.2973H86.8263V39.2973H85.8263ZM124.639 37.4377V36.4377H123.639V37.4377H124.639ZM126.508 39.2973V40.2973H127.508V39.2973H126.508ZM126.508 37.4377H127.508V36.4377H126.508V37.4377ZM122.828 2.97589H123.828V1.97589H122.828V2.97589ZM121.017 2.97589H120.017V3.97589H121.017V2.97589ZM121.017 1.11623H122.017V0.116231H121.017V1.11623ZM117.337 1.11623V0.116231H116.337V1.11623H117.337ZM117.337 35.6361V36.6361H118.337V35.6361H117.337ZM115.527 35.6361V34.6361H114.527V35.6361H115.527ZM115.527 37.4377V38.4377H116.527V37.4377H115.527ZM113.716 37.4377V36.4377H112.716V37.4377H113.716ZM113.716 39.2973V40.2973H114.716V39.2973H113.716ZM108.225 39.2973H107.225V40.2973H108.225V39.2973ZM108.225 37.4377H109.225V36.4377H108.225V37.4377ZM106.415 37.4377H105.415V38.4377H106.415V37.4377ZM106.415 2.97589H107.415V1.97589H106.415V2.97589ZM104.604 2.97589H103.604V3.97589H104.604V2.97589ZM104.604 1.11623H105.604V0.116231H104.604V1.11623ZM100.924 1.11623V0.116231H99.924V1.11623H100.924ZM100.924 37.4377H99.924V38.4377H100.924V37.4377ZM102.735 37.4377H103.735V36.4377H102.735V37.4377ZM102.735 39.2973H101.735V40.2973H102.735V39.2973ZM104.604 39.2973H105.604V38.2973H104.604V39.2973ZM104.604 41.0989H103.604V42.0989H104.604V41.0989ZM115.527 41.0989V42.0989H116.527V41.0989H115.527ZM115.527 39.2973V38.2973H114.527V39.2973H115.527ZM117.337 39.2973V40.2973H118.337V39.2973H117.337ZM117.337 37.4377V36.4377H116.337V37.4377H117.337ZM119.206 37.4377H120.206V36.4377H119.206V37.4377ZM119.206 39.2973H118.206V40.2973H119.206V39.2973ZM121.017 39.2973H122.017V38.2973H121.017V39.2973ZM121.017 41.0989H120.017V42.0989H121.017V41.0989ZM124.639 41.0989V42.0989H125.639V41.0989H124.639ZM122.828 39.2973H121.828V40.2973H122.828V39.2973ZM150.605 2.91778H149.605V3.91778H150.605V2.91778ZM150.605 1.11623H151.605V0.116231H150.605V1.11623ZM146.925 1.11623V0.116231H145.925V1.11623H146.925ZM146.925 19.306V20.306H147.925V19.306H146.925ZM136.002 19.306H135.002V20.306H136.002V19.306ZM136.002 2.91778H137.002V1.91778H136.002V2.91778ZM134.192 2.91778H133.192V3.91778H134.192V2.91778ZM134.192 1.11623H135.192V0.116231H134.192V1.11623ZM130.512 1.11623V0.116231H129.512V1.11623H130.512ZM130.512 39.2973H129.512V40.2973H130.512V39.2973ZM132.323 39.2973H133.323V38.2973H132.323V39.2973ZM132.323 41.0989H131.323V42.0989H132.323V41.0989ZM136.002 41.0989V42.0989H137.002V41.0989H136.002ZM136.002 21.1076V20.1076H135.002V21.1076H136.002ZM146.925 21.1076H147.925V20.1076H146.925V21.1076ZM146.925 39.2973H145.925V40.2973H146.925V39.2973ZM148.794 39.2973H149.794V38.2973H148.794V39.2973ZM148.794 41.0989H147.794V42.0989H148.794V41.0989ZM152.416 41.0989V42.0989H153.416V41.0989H152.416ZM152.416 2.91778H153.416V1.91778H152.416V2.91778ZM165.951 32.0331H166.951V31.0331H165.951V32.0331ZM164.14 32.0331V31.0331H163.14V32.0331H164.14ZM164.14 39.2973H163.14V40.2973H164.14V39.2973ZM184.233 30.1734H183.233V31.1734H184.233V30.1734ZM184.233 21.1076H185.233V20.1076H184.233V21.1076ZM182.423 21.1076H181.423V22.1076H182.423V21.1076ZM182.423 10.1821H183.423V9.18207H182.423V10.1821ZM180.553 10.1821H179.553V11.1821H180.553V10.1821ZM180.553 4.77743H181.553V3.77743H180.553V4.77743ZM178.743 4.77743H177.743V5.77743H178.743V4.77743ZM178.743 1.11623H179.743V0.116231H178.743V1.11623ZM175.121 1.11623V0.116231H174.121V1.11623H175.121ZM175.121 4.77743V5.77743H176.121V4.77743H175.121ZM173.252 4.77743V3.77743H172.252V4.77743H173.252ZM173.252 10.1821V11.1821H174.252V10.1821H173.252ZM171.441 10.1821V9.18207H170.441V10.1821H171.441ZM171.441 21.1076V22.1076H172.441V21.1076H171.441ZM169.631 21.1076V20.1076H168.631V21.1076H169.631ZM169.631 26.5703V27.5703H170.631V26.5703H169.631ZM165.951 26.5703H164.951V27.5703H165.951V26.5703ZM165.951 24.7688H166.951V23.7688H165.951V24.7688ZM162.329 24.7688H161.329V25.7688H162.329V24.7688ZM162.329 22.9091H163.329V21.9091H162.329V22.9091ZM158.649 22.9091H157.649V23.9091H158.649V22.9091ZM158.649 21.1076H159.649V20.1076H158.649V21.1076ZM156.839 21.1076V20.1076H155.839V21.1076H156.839ZM156.839 24.7688H155.839V25.7688H156.839V24.7688ZM158.649 24.7688H159.649V23.7688H158.649V24.7688ZM158.649 26.5703H157.649V27.5703H158.649V26.5703ZM160.519 26.5703H161.519V25.5703H160.519V26.5703ZM160.519 28.3718H159.519V29.3718H160.519V28.3718ZM169.631 28.3718H170.631V27.3718H169.631V28.3718ZM169.631 30.1734V31.1734H170.631V30.1734H169.631ZM167.82 30.1734V29.1734H166.82V30.1734H167.82ZM167.82 39.2973V40.2973H168.82V39.2973H167.82ZM165.951 41.0989H164.951V42.0989H165.951V41.0989ZM169.631 41.0989V42.0989H170.631V41.0989H169.631ZM169.631 39.2973V38.2973H168.631V39.2973H169.631ZM171.441 39.2973V40.2973H172.441V39.2973H171.441ZM171.441 30.1734V29.1734H170.441V30.1734H171.441ZM173.252 30.1734V31.1734H174.252V30.1734H173.252ZM173.252 28.3718V27.3718H172.252V28.3718H173.252ZM178.743 28.3718H179.743V27.3718H178.743V28.3718ZM178.743 30.1734H177.743V31.1734H178.743V30.1734ZM180.553 30.1734H181.553V29.1734H180.553V30.1734ZM180.553 35.6361H179.553V36.6361H180.553V35.6361ZM182.423 35.6361H183.423V34.6361H182.423V35.6361ZM182.423 41.0989H181.423V42.0989H182.423V41.0989ZM186.044 41.0989V42.0989H187.044V41.0989H186.044ZM186.044 30.1734H187.044V29.1734H186.044V30.1734ZM173.252 26.5703H172.252V27.5703H173.252V26.5703ZM173.252 21.1076V20.1076H172.252V21.1076H173.252ZM175.121 21.1076V22.1076H176.121V21.1076H175.121ZM175.121 10.1821V9.18207H174.121V10.1821H175.121ZM176.932 10.1821H177.932V9.18207H176.932V10.1821ZM176.932 21.1076H175.932V22.1076H176.932V21.1076ZM178.743 21.1076H179.743V20.1076H178.743V21.1076ZM178.743 26.5703V27.5703H179.743V26.5703H178.743ZM192.866 37.4377H193.866V36.4377H192.866V37.4377ZM189.186 37.4377V36.4377H188.186V37.4377H189.186ZM189.186 41.0989H188.186V42.0989H189.186V41.0989ZM192.866 41.0989V42.0989H193.866V41.0989H192.866ZM219.98 13.7852H218.98V14.7852H219.98V13.7852ZM219.98 8.32241H220.98V7.32241H219.98V8.32241ZM218.111 8.32241H217.111V9.32241H218.111V8.32241ZM218.111 4.6612H219.111V3.6612H218.111V4.6612ZM216.3 4.6612H215.3V5.6612H216.3V4.6612ZM216.3 2.85966H217.3V1.85966H216.3V2.85966ZM214.431 2.85966H213.431V3.85966H214.431V2.85966ZM214.431 1H215.431V0H214.431V1ZM196.149 1V0H195.149V1H196.149ZM196.149 39.2973H195.149V40.2973H196.149V39.2973ZM197.959 39.2973H198.959V38.2973H197.959V39.2973ZM197.959 41.0989H196.959V42.0989H197.959V41.0989ZM214.431 41.0989V42.0989H215.431V41.0989H214.431ZM214.431 39.2973V38.2973H213.431V39.2973H214.431ZM216.3 39.2973V40.2973H217.3V39.2973H216.3ZM216.3 37.4377V36.4377H215.3V37.4377H216.3ZM218.111 37.4377V38.4377H219.111V37.4377H218.111ZM218.111 33.8346V32.8346H217.111V33.8346H218.111ZM219.98 33.8346V34.8346H220.98V33.8346H219.98ZM219.98 28.3718V27.3718H218.98V28.3718H219.98ZM221.791 28.3718V29.3718H222.791V28.3718H221.791ZM221.791 13.7852H222.791V12.7852H221.791V13.7852ZM216.3 28.3718V29.3718H217.3V28.3718H216.3ZM214.431 28.3718V27.3718H213.431V28.3718H214.431ZM214.431 33.8346V34.8346H215.431V33.8346H214.431ZM212.62 33.8346V32.8346H211.62V33.8346H212.62ZM212.62 37.4377V38.4377H213.62V37.4377H212.62ZM210.81 37.4377V36.4377H209.81V37.4377H210.81ZM210.81 39.2973V40.2973H211.81V39.2973H210.81ZM201.639 39.2973H200.639V40.2973H201.639V39.2973ZM201.639 2.85966V1.85966H200.639V2.85966H201.639ZM210.81 2.85966H211.81V1.85966H210.81V2.85966ZM210.81 4.6612H209.81V5.6612H210.81V4.6612ZM212.62 4.6612H213.62V3.6612H212.62V4.6612ZM212.62 8.32241H211.62V9.32241H212.62V8.32241ZM214.431 8.32241H215.431V7.32241H214.431V8.32241ZM214.431 13.7852H213.431V14.7852H214.431V13.7852ZM216.3 13.7852H217.3V12.7852H216.3V13.7852ZM254.962 13.7852H253.962V14.7852H254.962V13.7852ZM254.962 8.32241H255.962V7.32241H254.962V8.32241ZM253.093 8.32241H252.093V9.32241H253.093V8.32241ZM253.093 4.6612H254.093V3.6612H253.093V4.6612ZM251.282 4.6612H250.282V5.6612H251.282V4.6612ZM251.282 2.85966H252.282V1.85966H251.282V2.85966ZM249.472 2.85966H248.472V3.85966H249.472V2.85966ZM249.472 1H250.472V0H249.472V1ZM232.941 1V0H231.941V1H232.941ZM232.941 2.85966V3.85966H233.941V2.85966H232.941ZM231.131 2.85966V1.85966H230.131V2.85966H231.131ZM231.131 4.6612V5.6612H232.131V4.6612H231.131ZM229.32 4.6612V3.6612H228.32V4.6612H229.32ZM229.32 8.32241V9.32241H230.32V8.32241H229.32ZM227.451 8.32241V7.32241H226.451V8.32241H227.451ZM227.451 13.7852V14.7852H228.451V13.7852H227.451ZM225.64 13.7852V12.7852H224.64V13.7852H225.64ZM225.64 28.3718H224.64V29.3718H225.64V28.3718ZM227.451 28.3718H228.451V27.3718H227.451V28.3718ZM227.451 33.8346H226.451V34.8346H227.451V33.8346ZM229.32 33.8346H230.32V32.8346H229.32V33.8346ZM229.32 37.4377H228.32V38.4377H229.32V37.4377ZM231.131 37.4377H232.131V36.4377H231.131V37.4377ZM231.131 39.2973H230.131V40.2973H231.131V39.2973ZM232.941 39.2973H233.941V38.2973H232.941V39.2973ZM232.941 41.0989H231.941V42.0989H232.941V41.0989ZM249.472 41.0989V42.0989H250.472V41.0989H249.472ZM249.472 39.2973V38.2973H248.472V39.2973H249.472ZM251.282 39.2973V40.2973H252.282V39.2973H251.282ZM251.282 37.4377V36.4377H250.282V37.4377H251.282ZM253.093 37.4377V38.4377H254.093V37.4377H253.093ZM253.093 33.8346V32.8346H252.093V33.8346H253.093ZM254.962 33.8346V34.8346H255.962V33.8346H254.962ZM254.962 28.3718V27.3718H253.962V28.3718H254.962ZM256.773 28.3718V29.3718H257.773V28.3718H256.773ZM256.773 13.7852H257.773V12.7852H256.773V13.7852ZM251.282 28.3718V29.3718H252.282V28.3718H251.282ZM249.472 28.3718V27.3718H248.472V28.3718H249.472ZM249.472 33.8346V34.8346H250.472V33.8346H249.472ZM247.602 33.8346V32.8346H246.602V33.8346H247.602ZM247.602 37.4377V38.4377H248.602V37.4377H247.602ZM245.792 37.4377V36.4377H244.792V37.4377H245.792ZM245.792 39.2973V40.2973H246.792V39.2973H245.792ZM236.621 39.2973H235.621V40.2973H236.621V39.2973ZM236.621 37.4377H237.621V36.4377H236.621V37.4377ZM234.811 37.4377H233.811V38.4377H234.811V37.4377ZM234.811 33.8346H235.811V32.8346H234.811V33.8346ZM232.941 33.8346H231.941V34.8346H232.941V33.8346ZM232.941 28.3718H233.941V27.3718H232.941V28.3718ZM231.131 28.3718H230.131V29.3718H231.131V28.3718ZM231.131 13.7852V12.7852H230.131V13.7852H231.131ZM232.941 13.7852V14.7852H233.941V13.7852H232.941ZM232.941 8.32241V7.32241H231.941V8.32241H232.941ZM234.811 8.32241V9.32241H235.811V8.32241H234.811ZM234.811 4.6612V3.6612H233.811V4.6612H234.811ZM236.621 4.6612V5.6612H237.621V4.6612H236.621ZM236.621 2.85966V1.85966H235.621V2.85966H236.621ZM245.792 2.85966H246.792V1.85966H245.792V2.85966ZM245.792 4.6612H244.792V5.6612H245.792V4.6612ZM247.602 4.6612H248.602V3.6612H247.602V4.6612ZM247.602 8.32241H246.602V9.32241H247.602V8.32241ZM249.472 8.32241H250.472V7.32241H249.472V8.32241ZM249.472 13.7852H248.472V14.7852H249.472V13.7852ZM251.282 13.7852H252.282V12.7852H251.282V13.7852ZM279.131 2.85966H278.131V3.85966H279.131V2.85966ZM279.131 1H280.131V0H279.131V1ZM268.15 1V0H267.15V1H268.15ZM268.15 2.85966V3.85966H269.15V2.85966H268.15ZM266.339 2.85966V1.85966H265.339V2.85966H266.339ZM266.339 4.6612V5.6612H267.339V4.6612H266.339ZM264.528 4.6612V3.6612H263.528V4.6612H264.528ZM264.528 8.32241V9.32241H265.528V8.32241H264.528ZM262.659 8.32241V7.32241H261.659V8.32241H262.659ZM262.659 13.7852V14.7852H263.659V13.7852H262.659ZM260.848 13.7852V12.7852H259.848V13.7852H260.848ZM260.848 28.3718H259.848V29.3718H260.848V28.3718ZM262.659 28.3718H263.659V27.3718H262.659V28.3718ZM262.659 33.8346H261.659V34.8346H262.659V33.8346ZM264.528 33.8346H265.528V32.8346H264.528V33.8346ZM264.528 37.4377H263.528V38.4377H264.528V37.4377ZM266.339 37.4377H267.339V36.4377H266.339V37.4377ZM266.339 39.2973H265.339V40.2973H266.339V39.2973ZM268.15 39.2973H269.15V38.2973H268.15V39.2973ZM268.15 41.0989H267.15V42.0989H268.15V41.0989ZM279.131 41.0989V42.0989H280.131V41.0989H279.131ZM279.131 39.2973V38.2973H278.131V39.2973H279.131ZM281 39.2973V40.2973H282V39.2973H281ZM281 35.6361H282V34.6361H281V35.6361ZM279.131 35.6361V34.6361H278.131V35.6361H279.131ZM279.131 37.4377V38.4377H280.131V37.4377H279.131ZM277.32 37.4377V36.4377H276.32V37.4377H277.32ZM277.32 39.2973V40.2973H278.32V39.2973H277.32ZM271.83 39.2973H270.83V40.2973H271.83V39.2973ZM271.83 37.4377H272.83V36.4377H271.83V37.4377ZM270.019 37.4377H269.019V38.4377H270.019V37.4377ZM270.019 33.8346H271.019V32.8346H270.019V33.8346ZM268.15 33.8346H267.15V34.8346H268.15V33.8346ZM268.15 28.3718H269.15V27.3718H268.15V28.3718ZM266.339 28.3718H265.339V29.3718H266.339V28.3718ZM266.339 13.7852V12.7852H265.339V13.7852H266.339ZM268.15 13.7852V14.7852H269.15V13.7852H268.15ZM268.15 8.32241V7.32241H267.15V8.32241H268.15ZM270.019 8.32241V9.32241H271.019V8.32241H270.019ZM270.019 4.6612V3.6612H269.019V4.6612H270.019ZM271.83 4.6612V5.6612H272.83V4.6612H271.83ZM271.83 2.85966V1.85966H270.83V2.85966H271.83ZM277.32 2.85966H278.32V1.85966H277.32V2.85966ZM277.32 6.46275V7.46275H278.32V6.46275H277.32ZM275.509 6.46275V5.46275H274.509V6.46275H275.509ZM275.509 10.1239H274.509V11.1239H275.509V10.1239ZM277.32 8.32241V7.32241H276.32V8.32241H277.32ZM279.131 8.32241V9.32241H280.131V8.32241H279.131ZM279.131 6.46275V5.46275H278.131V6.46275H279.131ZM281 6.46275V7.46275H282V6.46275H281ZM281 2.85966H282V1.85966H281V2.85966ZM279.131 11.9255V12.9255H280.131V11.9255H279.131ZM279.131 10.1239H280.131V9.12395H279.131V10.1239ZM277.32 11.9255H276.32V12.9255H277.32V11.9255ZM27.5254 8.43863V4.77743H25.5254V8.43863H27.5254ZM26.5254 3.77743H24.7146V5.77743H26.5254V3.77743ZM25.7146 4.77743V2.97589H23.7146V4.77743H25.7146ZM24.7146 1.97589H22.9039V3.97589H24.7146V1.97589ZM23.9039 2.97589V1.17434H21.9039V2.97589H23.9039ZM22.9039 0.174344H4.62145V2.17434H22.9039V0.174344ZM3.62145 1.17434V2.97589H5.62145V1.17434H3.62145ZM4.62145 3.97589H6.49058V1.97589H4.62145V3.97589ZM5.49058 2.97589V39.2973H7.49058V2.97589H5.49058ZM6.49058 38.2973H4.62145V40.2973H6.49058V38.2973ZM5.62145 39.2973V32.0331H3.62145V39.2973H5.62145ZM4.62145 31.0331H2.81072V33.0331H4.62145V31.0331ZM1.81072 32.0331V33.8346H3.81072V32.0331H1.81072ZM2.81072 32.8346H1V34.8346H2.81072V32.8346ZM0 33.8346V35.6361H2V33.8346H0ZM0 35.6361V37.4958H2V35.6361H0ZM1 38.4958H2.81072V36.4958H1V38.4958ZM1.81072 37.4958V39.2973H3.81072V37.4958H1.81072ZM2.81072 40.2973H4.62145V38.2973H2.81072V40.2973ZM3.62145 39.2973V41.0989H5.62145V39.2973H3.62145ZM4.62145 42.0989H10.112V40.0989H4.62145V42.0989ZM11.112 41.0989V39.2973H9.11203V41.0989H11.112ZM10.112 40.2973H11.9228V38.2973H10.112V40.2973ZM12.9228 39.2973V26.5703H10.9228V39.2973H12.9228ZM11.9228 27.5703H21.0932V25.5703H11.9228V27.5703ZM22.0932 26.5703V24.7688H20.0932V26.5703H22.0932ZM21.0932 25.7688H24.7146V23.7688H21.0932V25.7688ZM25.7146 24.7688V22.9672H23.7146V24.7688H25.7146ZM24.7146 23.9672H26.5254V21.9672H24.7146V23.9672ZM27.5254 22.9672V19.306H25.5254V22.9672H27.5254ZM26.5254 20.306H28.3945V18.306H26.5254V20.306ZM29.3945 19.306V8.43863H27.3945V19.306H29.3945ZM28.3945 7.43863H26.5254V9.43863H28.3945V7.43863ZM18.2241 22.9672V24.7688H20.2241V22.9672H18.2241ZM19.2241 23.7688H11.9228V25.7688H19.2241V23.7688ZM12.9228 24.7688V2.97589H10.9228V24.7688H12.9228ZM11.9228 3.97589H19.2241V1.97589H11.9228V3.97589ZM18.2241 2.97589V4.77743H20.2241V2.97589H18.2241ZM19.2241 5.77743H21.0932V3.77743H19.2241V5.77743ZM20.0932 4.77743V8.43863H22.0932V4.77743H20.0932ZM21.0932 9.43863H22.9039V7.43863H21.0932V9.43863ZM21.9039 8.43863V19.306H23.9039V8.43863H21.9039ZM22.9039 18.306H21.0932V20.306H22.9039V18.306ZM20.0932 19.306V22.9672H22.0932V19.306H20.0932ZM21.0932 21.9672H19.2241V23.9672H21.0932V21.9672ZM62.5934 13.8433V8.38052H60.5934V13.8433H62.5934ZM61.5934 7.38052H59.7826V9.38052H61.5934V7.38052ZM60.7826 8.38052V4.77743H58.7826V8.38052H60.7826ZM59.7826 3.77743H57.9719V5.77743H59.7826V3.77743ZM58.9719 4.77743V2.91778H56.9719V4.77743H58.9719ZM57.9719 1.91778H56.1612V3.91778H57.9719V1.91778ZM57.1612 2.91778V1.11623H55.1612V2.91778H57.1612ZM56.1612 0.116231H39.6895V2.11623H56.1612V0.116231ZM38.6895 1.11623V2.91778H40.6895V1.11623H38.6895ZM39.6895 1.91778H37.8787V3.91778H39.6895V1.91778ZM36.8787 2.91778V4.77743H38.8787V2.91778H36.8787ZM37.8787 3.77743H36.068V5.77743H37.8787V3.77743ZM35.068 4.77743V8.38052H37.068V4.77743H35.068ZM36.068 7.38052H34.1989V9.38052H36.068V7.38052ZM33.1989 8.38052V13.8433H35.1989V8.38052H33.1989ZM34.1989 12.8433H32.3882V14.8433H34.1989V12.8433ZM31.3882 13.8433V28.3718H33.3882V13.8433H31.3882ZM32.3882 29.3718H34.1989V27.3718H32.3882V29.3718ZM33.1989 28.3718V33.8346H35.1989V28.3718H33.1989ZM34.1989 34.8346H36.068V32.8346H34.1989V34.8346ZM35.068 33.8346V37.4377H37.068V33.8346H35.068ZM36.068 38.4377H37.8787V36.4377H36.068V38.4377ZM36.8787 37.4377V39.2973H38.8787V37.4377H36.8787ZM37.8787 40.2973H39.6895V38.2973H37.8787V40.2973ZM38.6895 39.2973V41.0989H40.6895V39.2973H38.6895ZM39.6895 42.0989H56.1612V40.0989H39.6895V42.0989ZM57.1612 41.0989V39.2973H55.1612V41.0989H57.1612ZM56.1612 40.2973H57.9719V38.2973H56.1612V40.2973ZM58.9719 39.2973V37.4377H56.9719V39.2973H58.9719ZM57.9719 38.4377H59.7826V36.4377H57.9719V38.4377ZM60.7826 37.4377V33.8346H58.7826V37.4377H60.7826ZM59.7826 34.8346H61.5934V32.8346H59.7826V34.8346ZM62.5934 33.8346V28.3718H60.5934V33.8346H62.5934ZM61.5934 29.3718H63.4625V27.3718H61.5934V29.3718ZM64.4625 28.3718V13.8433H62.4625V28.3718H64.4625ZM63.4625 12.8433H61.5934V14.8433H63.4625V12.8433ZM57.9719 27.3718H56.1612V29.3718H57.9719V27.3718ZM55.1612 28.3718V33.8346H57.1612V28.3718H55.1612ZM56.1612 32.8346H54.2921V34.8346H56.1612V32.8346ZM53.2921 33.8346V37.4377H55.2921V33.8346H53.2921ZM54.2921 36.4377H52.4813V38.4377H54.2921V36.4377ZM51.4813 37.4377V39.2973H53.4813V37.4377H51.4813ZM52.4813 38.2973H43.3693V40.2973H52.4813V38.2973ZM44.3693 39.2973V37.4377H42.3693V39.2973H44.3693ZM43.3693 36.4377H41.5002V38.4377H43.3693V36.4377ZM42.5002 37.4377V33.8346H40.5002V37.4377H42.5002ZM41.5002 32.8346H39.6895V34.8346H41.5002V32.8346ZM40.6895 33.8346V28.3718H38.6895V33.8346H40.6895ZM39.6895 27.3718H37.8787V29.3718H39.6895V27.3718ZM38.8787 28.3718V13.8433H36.8787V28.3718H38.8787ZM37.8787 14.8433H39.6895V12.8433H37.8787V14.8433ZM40.6895 13.8433V8.38052H38.6895V13.8433H40.6895ZM39.6895 9.38052H41.5002V7.38052H39.6895V9.38052ZM42.5002 8.38052V4.77743H40.5002V8.38052H42.5002ZM41.5002 5.77743H43.3693V3.77743H41.5002V5.77743ZM44.3693 4.77743V2.91778H42.3693V4.77743H44.3693ZM43.3693 3.91778H52.4813V1.91778H43.3693V3.91778ZM51.4813 2.91778V4.77743H53.4813V2.91778H51.4813ZM52.4813 5.77743H54.2921V3.77743H52.4813V5.77743ZM53.2921 4.77743V8.38052H55.2921V4.77743H53.2921ZM54.2921 9.38052H56.1612V7.38052H54.2921V9.38052ZM55.1612 8.38052V13.8433H57.1612V8.38052H55.1612ZM56.1612 14.8433H57.9719V12.8433H56.1612V14.8433ZM56.9719 13.8433V28.3718H58.9719V13.8433H56.9719ZM92.3168 39.2973V2.91778H90.3168V39.2973H92.3168ZM91.3168 1.91778H89.5061V3.91778H91.3168V1.91778ZM90.5061 2.91778V1.11623H88.5061V2.91778H90.5061ZM89.5061 0.116231H76.7142V2.11623H89.5061V0.116231ZM75.7142 1.11623V4.71932H77.7142V1.11623H75.7142ZM76.7142 3.71932H74.9035V5.71932H76.7142V3.71932ZM73.9035 4.71932V10.1821H75.9035V4.71932H73.9035ZM74.9035 9.18207H73.0344V11.1821H74.9035V9.18207ZM72.0344 10.1821V21.1076H74.0344V10.1821H72.0344ZM73.0344 20.1076H71.2236V22.1076H73.0344V20.1076ZM70.2236 21.1076V30.1734H72.2236V21.1076H70.2236ZM71.2236 29.1734H69.4129V31.1734H71.2236V29.1734ZM68.4129 30.1734V39.2973H70.4129V30.1734H68.4129ZM69.4129 38.2973H63.9223V40.2973H69.4129V38.2973ZM62.9223 39.2973V42.9004H64.9223V39.2973H62.9223ZM63.9223 43.9004H65.7331V41.9004H63.9223V43.9004ZM64.7331 42.9004V46.5616H66.7331V42.9004H64.7331ZM65.7331 47.5616H67.6022V45.5616H65.7331V47.5616ZM66.6022 46.5616V48.3632H68.6022V46.5616H66.6022ZM67.6022 49.3632H69.4129V47.3632H67.6022V49.3632ZM70.4129 48.3632V41.0989H68.4129V48.3632H70.4129ZM69.4129 42.0989H91.3168V40.0989H69.4129V42.0989ZM90.3168 41.0989V48.3632H92.3168V41.0989H90.3168ZM91.3168 49.3632H93.186V47.3632H91.3168V49.3632ZM94.186 48.3632V46.5616H92.186V48.3632H94.186ZM93.186 47.5616H94.9967V45.5616H93.186V47.5616ZM95.9967 46.5616V42.9004H93.9967V46.5616H95.9967ZM94.9967 43.9004H96.8074V41.9004H94.9967V43.9004ZM97.8074 42.9004V39.2973H95.8074V42.9004H97.8074ZM96.8074 38.2973H91.3168V40.2973H96.8074V38.2973ZM74.0344 39.2973V30.1734H72.0344V39.2973H74.0344ZM73.0344 31.1734H74.9035V29.1734H73.0344V31.1734ZM75.9035 30.1734V21.1076H73.9035V30.1734H75.9035ZM74.9035 22.1076H76.7142V20.1076H74.9035V22.1076ZM77.7142 21.1076V10.1821H75.7142V21.1076H77.7142ZM76.7142 11.1821H78.5249V9.18207H76.7142V11.1821ZM79.5249 10.1821V2.91778H77.5249V10.1821H79.5249ZM78.5249 3.91778H85.8263V1.91778H78.5249V3.91778ZM84.8263 2.91778V39.2973H86.8263V2.91778H84.8263ZM85.8263 38.2973H73.0344V40.2973H85.8263V38.2973ZM123.639 37.4377V39.2973H125.639V37.4377H123.639ZM124.639 40.2973H126.508V38.2973H124.639V40.2973ZM127.508 39.2973V37.4377H125.508V39.2973H127.508ZM126.508 36.4377H124.639V38.4377H126.508V36.4377ZM122.828 1.97589H121.017V3.97589H122.828V1.97589ZM122.017 2.97589V1.11623H120.017V2.97589H122.017ZM121.017 0.116231H117.337V2.11623H121.017V0.116231ZM116.337 1.11623V35.6361H118.337V1.11623H116.337ZM117.337 34.6361H115.527V36.6361H117.337V34.6361ZM114.527 35.6361V37.4377H116.527V35.6361H114.527ZM115.527 36.4377H113.716V38.4377H115.527V36.4377ZM112.716 37.4377V39.2973H114.716V37.4377H112.716ZM113.716 38.2973H108.225V40.2973H113.716V38.2973ZM109.225 39.2973V37.4377H107.225V39.2973H109.225ZM108.225 36.4377H106.415V38.4377H108.225V36.4377ZM107.415 37.4377V2.97589H105.415V37.4377H107.415ZM106.415 1.97589H104.604V3.97589H106.415V1.97589ZM105.604 2.97589V1.11623H103.604V2.97589H105.604ZM104.604 0.116231H100.924V2.11623H104.604V0.116231ZM99.924 1.11623V37.4377H101.924V1.11623H99.924ZM100.924 38.4377H102.735V36.4377H100.924V38.4377ZM101.735 37.4377V39.2973H103.735V37.4377H101.735ZM102.735 40.2973H104.604V38.2973H102.735V40.2973ZM103.604 39.2973V41.0989H105.604V39.2973H103.604ZM104.604 42.0989H115.527V40.0989H104.604V42.0989ZM116.527 41.0989V39.2973H114.527V41.0989H116.527ZM115.527 40.2973H117.337V38.2973H115.527V40.2973ZM118.337 39.2973V37.4377H116.337V39.2973H118.337ZM117.337 38.4377H119.206V36.4377H117.337V38.4377ZM118.206 37.4377V39.2973H120.206V37.4377H118.206ZM119.206 40.2973H121.017V38.2973H119.206V40.2973ZM120.017 39.2973V41.0989H122.017V39.2973H120.017ZM121.017 42.0989H124.639V40.0989H121.017V42.0989ZM125.639 41.0989V39.2973H123.639V41.0989H125.639ZM124.639 38.2973H122.828V40.2973H124.639V38.2973ZM123.828 39.2973V2.97589H121.828V39.2973H123.828ZM151.605 2.91778V1.11623H149.605V2.91778H151.605ZM150.605 0.116231H146.925V2.11623H150.605V0.116231ZM145.925 1.11623V19.306H147.925V1.11623H145.925ZM146.925 18.306H136.002V20.306H146.925V18.306ZM137.002 19.306V2.91778H135.002V19.306H137.002ZM136.002 1.91778H134.192V3.91778H136.002V1.91778ZM135.192 2.91778V1.11623H133.192V2.91778H135.192ZM134.192 0.116231H130.512V2.11623H134.192V0.116231ZM129.512 1.11623V39.2973H131.512V1.11623H129.512ZM130.512 40.2973H132.323V38.2973H130.512V40.2973ZM131.323 39.2973V41.0989H133.323V39.2973H131.323ZM132.323 42.0989H136.002V40.0989H132.323V42.0989ZM137.002 41.0989V21.1076H135.002V41.0989H137.002ZM136.002 22.1076H146.925V20.1076H136.002V22.1076ZM145.925 21.1076V39.2973H147.925V21.1076H145.925ZM146.925 40.2973H148.794V38.2973H146.925V40.2973ZM147.794 39.2973V41.0989H149.794V39.2973H147.794ZM148.794 42.0989H152.416V40.0989H148.794V42.0989ZM153.416 41.0989V2.91778H151.416V41.0989H153.416ZM152.416 1.91778H150.605V3.91778H152.416V1.91778ZM165.951 31.0331H164.14V33.0331H165.951V31.0331ZM163.14 32.0331V39.2973H165.14V32.0331H163.14ZM164.14 40.2973H165.951V38.2973H164.14V40.2973ZM166.951 39.2973V32.0331H164.951V39.2973H166.951ZM185.233 30.1734V21.1076H183.233V30.1734H185.233ZM184.233 20.1076H182.423V22.1076H184.233V20.1076ZM183.423 21.1076V10.1821H181.423V21.1076H183.423ZM182.423 9.18207H180.553V11.1821H182.423V9.18207ZM181.553 10.1821V4.77743H179.553V10.1821H181.553ZM180.553 3.77743H178.743V5.77743H180.553V3.77743ZM179.743 4.77743V1.11623H177.743V4.77743H179.743ZM178.743 0.116231H175.121V2.11623H178.743V0.116231ZM174.121 1.11623V4.77743H176.121V1.11623H174.121ZM175.121 3.77743H173.252V5.77743H175.121V3.77743ZM172.252 4.77743V10.1821H174.252V4.77743H172.252ZM173.252 9.18207H171.441V11.1821H173.252V9.18207ZM170.441 10.1821V21.1076H172.441V10.1821H170.441ZM171.441 20.1076H169.631V22.1076H171.441V20.1076ZM168.631 21.1076V26.5703H170.631V21.1076H168.631ZM169.631 25.5703H165.951V27.5703H169.631V25.5703ZM166.951 26.5703V24.7688H164.951V26.5703H166.951ZM165.951 23.7688H162.329V25.7688H165.951V23.7688ZM163.329 24.7688V22.9091H161.329V24.7688H163.329ZM162.329 21.9091H158.649V23.9091H162.329V21.9091ZM159.649 22.9091V21.1076H157.649V22.9091H159.649ZM158.649 20.1076H156.839V22.1076H158.649V20.1076ZM155.839 21.1076V24.7688H157.839V21.1076H155.839ZM156.839 25.7688H158.649V23.7688H156.839V25.7688ZM157.649 24.7688V26.5703H159.649V24.7688H157.649ZM158.649 27.5703H160.519V25.5703H158.649V27.5703ZM159.519 26.5703V28.3718H161.519V26.5703H159.519ZM160.519 29.3718H169.631V27.3718H160.519V29.3718ZM168.631 28.3718V30.1734H170.631V28.3718H168.631ZM169.631 29.1734H167.82V31.1734H169.631V29.1734ZM166.82 30.1734V39.2973H168.82V30.1734H166.82ZM167.82 38.2973H165.951V40.2973H167.82V38.2973ZM164.951 39.2973V41.0989H166.951V39.2973H164.951ZM165.951 42.0989H169.631V40.0989H165.951V42.0989ZM170.631 41.0989V39.2973H168.631V41.0989H170.631ZM169.631 40.2973H171.441V38.2973H169.631V40.2973ZM172.441 39.2973V30.1734H170.441V39.2973H172.441ZM171.441 31.1734H173.252V29.1734H171.441V31.1734ZM174.252 30.1734V28.3718H172.252V30.1734H174.252ZM173.252 29.3718H178.743V27.3718H173.252V29.3718ZM177.743 28.3718V30.1734H179.743V28.3718H177.743ZM178.743 31.1734H180.553V29.1734H178.743V31.1734ZM179.553 30.1734V35.6361H181.553V30.1734H179.553ZM180.553 36.6361H182.423V34.6361H180.553V36.6361ZM181.423 35.6361V41.0989H183.423V35.6361H181.423ZM182.423 42.0989H186.044V40.0989H182.423V42.0989ZM187.044 41.0989V30.1734H185.044V41.0989H187.044ZM186.044 29.1734H184.233V31.1734H186.044V29.1734ZM174.252 26.5703V21.1076H172.252V26.5703H174.252ZM173.252 22.1076H175.121V20.1076H173.252V22.1076ZM176.121 21.1076V10.1821H174.121V21.1076H176.121ZM175.121 11.1821H176.932V9.18207H175.121V11.1821ZM175.932 10.1821V21.1076H177.932V10.1821H175.932ZM176.932 22.1076H178.743V20.1076H176.932V22.1076ZM177.743 21.1076V26.5703H179.743V21.1076H177.743ZM178.743 25.5703H173.252V27.5703H178.743V25.5703ZM192.866 36.4377H189.186V38.4377H192.866V36.4377ZM188.186 37.4377V41.0989H190.186V37.4377H188.186ZM189.186 42.0989H192.866V40.0989H189.186V42.0989ZM193.866 41.0989V37.4377H191.866V41.0989H193.866ZM220.98 13.7852V8.32241H218.98V13.7852H220.98ZM219.98 7.32241H218.111V9.32241H219.98V7.32241ZM219.111 8.32241V4.6612H217.111V8.32241H219.111ZM218.111 3.6612H216.3V5.6612H218.111V3.6612ZM217.3 4.6612V2.85966H215.3V4.6612H217.3ZM216.3 1.85966H214.431V3.85966H216.3V1.85966ZM215.431 2.85966V1H213.431V2.85966H215.431ZM214.431 0H196.149V2H214.431V0ZM195.149 1V39.2973H197.149V1H195.149ZM196.149 40.2973H197.959V38.2973H196.149V40.2973ZM196.959 39.2973V41.0989H198.959V39.2973H196.959ZM197.959 42.0989H214.431V40.0989H197.959V42.0989ZM215.431 41.0989V39.2973H213.431V41.0989H215.431ZM214.431 40.2973H216.3V38.2973H214.431V40.2973ZM217.3 39.2973V37.4377H215.3V39.2973H217.3ZM216.3 38.4377H218.111V36.4377H216.3V38.4377ZM219.111 37.4377V33.8346H217.111V37.4377H219.111ZM218.111 34.8346H219.98V32.8346H218.111V34.8346ZM220.98 33.8346V28.3718H218.98V33.8346H220.98ZM219.98 29.3718H221.791V27.3718H219.98V29.3718ZM222.791 28.3718V13.7852H220.791V28.3718H222.791ZM221.791 12.7852H219.98V14.7852H221.791V12.7852ZM216.3 27.3718H214.431V29.3718H216.3V27.3718ZM213.431 28.3718V33.8346H215.431V28.3718H213.431ZM214.431 32.8346H212.62V34.8346H214.431V32.8346ZM211.62 33.8346V37.4377H213.62V33.8346H211.62ZM212.62 36.4377H210.81V38.4377H212.62V36.4377ZM209.81 37.4377V39.2973H211.81V37.4377H209.81ZM210.81 38.2973H201.639V40.2973H210.81V38.2973ZM202.639 39.2973V2.85966H200.639V39.2973H202.639ZM201.639 3.85966H210.81V1.85966H201.639V3.85966ZM209.81 2.85966V4.6612H211.81V2.85966H209.81ZM210.81 5.6612H212.62V3.6612H210.81V5.6612ZM211.62 4.6612V8.32241H213.62V4.6612H211.62ZM212.62 9.32241H214.431V7.32241H212.62V9.32241ZM213.431 8.32241V13.7852H215.431V8.32241H213.431ZM214.431 14.7852H216.3V12.7852H214.431V14.7852ZM215.3 13.7852V28.3718H217.3V13.7852H215.3ZM255.962 13.7852V8.32241H253.962V13.7852H255.962ZM254.962 7.32241H253.093V9.32241H254.962V7.32241ZM254.093 8.32241V4.6612H252.093V8.32241H254.093ZM253.093 3.6612H251.282V5.6612H253.093V3.6612ZM252.282 4.6612V2.85966H250.282V4.6612H252.282ZM251.282 1.85966H249.472V3.85966H251.282V1.85966ZM250.472 2.85966V1H248.472V2.85966H250.472ZM249.472 0H232.941V2H249.472V0ZM231.941 1V2.85966H233.941V1H231.941ZM232.941 1.85966H231.131V3.85966H232.941V1.85966ZM230.131 2.85966V4.6612H232.131V2.85966H230.131ZM231.131 3.6612H229.32V5.6612H231.131V3.6612ZM228.32 4.6612V8.32241H230.32V4.6612H228.32ZM229.32 7.32241H227.451V9.32241H229.32V7.32241ZM226.451 8.32241V13.7852H228.451V8.32241H226.451ZM227.451 12.7852H225.64V14.7852H227.451V12.7852ZM224.64 13.7852V28.3718H226.64V13.7852H224.64ZM225.64 29.3718H227.451V27.3718H225.64V29.3718ZM226.451 28.3718V33.8346H228.451V28.3718H226.451ZM227.451 34.8346H229.32V32.8346H227.451V34.8346ZM228.32 33.8346V37.4377H230.32V33.8346H228.32ZM229.32 38.4377H231.131V36.4377H229.32V38.4377ZM230.131 37.4377V39.2973H232.131V37.4377H230.131ZM231.131 40.2973H232.941V38.2973H231.131V40.2973ZM231.941 39.2973V41.0989H233.941V39.2973H231.941ZM232.941 42.0989H249.472V40.0989H232.941V42.0989ZM250.472 41.0989V39.2973H248.472V41.0989H250.472ZM249.472 40.2973H251.282V38.2973H249.472V40.2973ZM252.282 39.2973V37.4377H250.282V39.2973H252.282ZM251.282 38.4377H253.093V36.4377H251.282V38.4377ZM254.093 37.4377V33.8346H252.093V37.4377H254.093ZM253.093 34.8346H254.962V32.8346H253.093V34.8346ZM255.962 33.8346V28.3718H253.962V33.8346H255.962ZM254.962 29.3718H256.773V27.3718H254.962V29.3718ZM257.773 28.3718V13.7852H255.773V28.3718H257.773ZM256.773 12.7852H254.962V14.7852H256.773V12.7852ZM251.282 27.3718H249.472V29.3718H251.282V27.3718ZM248.472 28.3718V33.8346H250.472V28.3718H248.472ZM249.472 32.8346H247.602V34.8346H249.472V32.8346ZM246.602 33.8346V37.4377H248.602V33.8346H246.602ZM247.602 36.4377H245.792V38.4377H247.602V36.4377ZM244.792 37.4377V39.2973H246.792V37.4377H244.792ZM245.792 38.2973H236.621V40.2973H245.792V38.2973ZM237.621 39.2973V37.4377H235.621V39.2973H237.621ZM236.621 36.4377H234.811V38.4377H236.621V36.4377ZM235.811 37.4377V33.8346H233.811V37.4377H235.811ZM234.811 32.8346H232.941V34.8346H234.811V32.8346ZM233.941 33.8346V28.3718H231.941V33.8346H233.941ZM232.941 27.3718H231.131V29.3718H232.941V27.3718ZM232.131 28.3718V13.7852H230.131V28.3718H232.131ZM231.131 14.7852H232.941V12.7852H231.131V14.7852ZM233.941 13.7852V8.32241H231.941V13.7852H233.941ZM232.941 9.32241H234.811V7.32241H232.941V9.32241ZM235.811 8.32241V4.6612H233.811V8.32241H235.811ZM234.811 5.6612H236.621V3.6612H234.811V5.6612ZM237.621 4.6612V2.85966H235.621V4.6612H237.621ZM236.621 3.85966H245.792V1.85966H236.621V3.85966ZM244.792 2.85966V4.6612H246.792V2.85966H244.792ZM245.792 5.6612H247.602V3.6612H245.792V5.6612ZM246.602 4.6612V8.32241H248.602V4.6612H246.602ZM247.602 9.32241H249.472V7.32241H247.602V9.32241ZM248.472 8.32241V13.7852H250.472V8.32241H248.472ZM249.472 14.7852H251.282V12.7852H249.472V14.7852ZM250.282 13.7852V28.3718H252.282V13.7852H250.282ZM280.131 2.85966V1H278.131V2.85966H280.131ZM279.131 0H268.15V2H279.131V0ZM267.15 1V2.85966H269.15V1H267.15ZM268.15 1.85966H266.339V3.85966H268.15V1.85966ZM265.339 2.85966V4.6612H267.339V2.85966H265.339ZM266.339 3.6612H264.528V5.6612H266.339V3.6612ZM263.528 4.6612V8.32241H265.528V4.6612H263.528ZM264.528 7.32241H262.659V9.32241H264.528V7.32241ZM261.659 8.32241V13.7852H263.659V8.32241H261.659ZM262.659 12.7852H260.848V14.7852H262.659V12.7852ZM259.848 13.7852V28.3718H261.848V13.7852H259.848ZM260.848 29.3718H262.659V27.3718H260.848V29.3718ZM261.659 28.3718V33.8346H263.659V28.3718H261.659ZM262.659 34.8346H264.528V32.8346H262.659V34.8346ZM263.528 33.8346V37.4377H265.528V33.8346H263.528ZM264.528 38.4377H266.339V36.4377H264.528V38.4377ZM265.339 37.4377V39.2973H267.339V37.4377H265.339ZM266.339 40.2973H268.15V38.2973H266.339V40.2973ZM267.15 39.2973V41.0989H269.15V39.2973H267.15ZM268.15 42.0989H279.131V40.0989H268.15V42.0989ZM280.131 41.0989V39.2973H278.131V41.0989H280.131ZM279.131 40.2973H281V38.2973H279.131V40.2973ZM282 39.2973V35.6361H280V39.2973H282ZM281 34.6361H279.131V36.6361H281V34.6361ZM278.131 35.6361V37.4377H280.131V35.6361H278.131ZM279.131 36.4377H277.32V38.4377H279.131V36.4377ZM276.32 37.4377V39.2973H278.32V37.4377H276.32ZM277.32 38.2973H271.83V40.2973H277.32V38.2973ZM272.83 39.2973V37.4377H270.83V39.2973H272.83ZM271.83 36.4377H270.019V38.4377H271.83V36.4377ZM271.019 37.4377V33.8346H269.019V37.4377H271.019ZM270.019 32.8346H268.15V34.8346H270.019V32.8346ZM269.15 33.8346V28.3718H267.15V33.8346H269.15ZM268.15 27.3718H266.339V29.3718H268.15V27.3718ZM267.339 28.3718V13.7852H265.339V28.3718H267.339ZM266.339 14.7852H268.15V12.7852H266.339V14.7852ZM269.15 13.7852V8.32241H267.15V13.7852H269.15ZM268.15 9.32241H270.019V7.32241H268.15V9.32241ZM271.019 8.32241V4.6612H269.019V8.32241H271.019ZM270.019 5.6612H271.83V3.6612H270.019V5.6612ZM272.83 4.6612V2.85966H270.83V4.6612H272.83ZM271.83 3.85966H277.32V1.85966H271.83V3.85966ZM276.32 2.85966V6.46275H278.32V2.85966H276.32ZM277.32 5.46275H275.509V7.46275H277.32V5.46275ZM274.509 6.46275V10.1239H276.509V6.46275H274.509ZM275.509 11.1239H277.32V9.12395H275.509V11.1239ZM278.32 10.1239V8.32241H276.32V10.1239H278.32ZM277.32 9.32241H279.131V7.32241H277.32V9.32241ZM280.131 8.32241V6.46275H278.131V8.32241H280.131ZM279.131 7.46275H281V5.46275H279.131V7.46275ZM282 6.46275V2.85966H280V6.46275H282ZM281 1.85966H279.131V3.85966H281V1.85966ZM280.131 11.9255V10.1239H278.131V11.9255H280.131ZM279.131 9.12395H277.32V11.1239H279.131V9.12395ZM276.32 10.1239V11.9255H278.32V10.1239H276.32ZM277.32 12.9255H279.131V10.9255H277.32V12.9255Z" fill="#3DFAFF" mask="url(#path-1-outside-1)"/>
</svg>
