<svg xmlns="http://www.w3.org/2000/svg" viewBox="0 0 604 104" xmlns:v="https://vecta.io/nano"><path d="M195 103.2V87.7h-45.9v15.6h-4.9v-3.9h-4v-7.8h-3.9v-8.7h11.8V63.3h3.9V43.8h3.9V20.4h4V8.7h3.9V1h28.4v3.9h3.9v78h11.8v8.7H204v7.8h-4v3.9h-5zm-11.7-20.4v-77h-14.6v15.6h-3.9v23.4h-3.9v19.4h-4v18.6h26.4zm207 4.9V76h-4V64.3h-3.9v-3.9h-10.8v3.9h-3.9v19.6h-3.9v3.9H355v-3.9h-3.9V67.3h4.9v15.6h3V63.3h3.9v-2.9h-19.5v-3.9h-4v-3.9h-3.9v-8.8h4.9v3.9h7.9v4h7.8v3.9h6.9V43.8h3.9V20.4h3.9V8.8h4V1h8.8v7.8h3.9v11.6h4v23.4h3.9v19.4h3.9v24.4h-9zm-7.9-32.2V44.8h-3.9V21.4h-2.9v23.4h-4v10.7h10.8zm-99.5 32.2v-3.9H279V1h8.9v3.9h3.9V40h22.4V1h8.9v3.9h3.9v82.8h-8.8v-3.9h-4v-39h-22.4v42.8h-8.9zm-24.2 0v-3.9h-3.9v-4h-3v4h-3.9v3.9h-24.4v-3.9h-4v-4h-3.9V1h8.9v4h3.9v73.8h3.9v4H243v-4h3.9V75h3.9V1h8.9v4h3.9v77.8h2.9v-4h5v5h-4v3.9h-8.8zm-174.3 0v-3.9h-3.9v-4h-3.9v-7.7h-4V60.4h-3.9V28.3h3.9V16.6h4V8.8h3.9v-4h3.9V1h36.3v3.9h3.9v4h3.9v7.7h3.9v11.7h4v32.1h-4v11.7h-3.9v7.7h-3.9v4h-3.9v3.9H84.4zm27.4-4.9v-4h3.9v-7.7h4V59.4h3.9V29.3h-3.9V17.6h-4V9.8h-3.9v-4H93.3v4h-4v7.7h-3.9v11.7h-3.9v30.1h3.9V71h3.9v7.7h4v4h18.5zm311.8 4.9v-3.9h-3.9V.8h40.2v4h4v3.9h3.9v7.8h4v11.7h3.9v32.3h-3.9v11.7h-4v7.7h-3.9v4h-4v3.9h-36.3zm27.5-4.9v-4h3.9v-7.7h3.9V59.4h4V29.1h-4V17.4H455V9.6h-3.9V5.7h-18.7v77.1h18.7zm-46.3 4.9v-8.8h8.9v8.8h-8.9zm-395.5 0v-3.9H5.4V80H1.5v-8.8h3.9v-3.9h4.9v15.6h3V6h-4V1.1h40.2V5h3.9v3.9h3.9v7.8h4V41h-4v7.8h-3.9v3.9h-7.8v3.9H25.9v27.3H22v3.9H9.3zm31.3-36v-3.9h4V40h3.9V17.7h-3.9V9.8h-4V6H25.9v45.7h14.7zm533.4 36v-3.9h-3.9v-4h-3.9v-7.7h-4V60.4h-3.9V28.1h3.9V16.4h4V8.6h3.9V4.7h3.9v-4h24.5v4h4v8.7h-4v4h-3.9v2.9h3.9v4.9h-4.9v-3.9h-3.9v-8.8h3.9V5.7h-10.8v3.9H579v7.8h-4v11.7h-3.9v30.3h3.9v11.7h4v7.7h3.9v4h10.8v-4h3.9V75h5v8.8h-4v3.9H574zm-75.5 0v-3.9h-3.9v-4h-3.9v-7.7h-4V60.4h-3.9V28.1h3.9V16.4h4V8.6h3.9V4.7h3.9v-4h36.4v4h3.9v3.9h3.9v7.8h4v11.7h3.9v32.3h-3.9v11.7h-4v7.7h-3.9v4h-3.9v3.9h-36.4zm27.6-4.9v-4h3.9v-7.7h4V59.4h3.9V29.2H534V17.4h-4V9.6h-3.9V5.7h-18.7v3.9h-3.9v7.8h-4v11.7h-3.9v30.3h3.9v11.7h4v7.7h3.9v4h18.7z" fill="#494639"/><path d="M598 1.3v4h0 4V13h-4v4h-3.9v3.9h-3.9V13h3.9V5.2h-11.8v3.9h-3.9v7.8h-4v11.7h-3.9v31.3h3.9v11.7h4v7.7h3.9v4h11.8v-4h3.9v-3.9h4v7.8h-4v3.9h-23.5v-3.9h-3.9v-4h-3.9v-7.7h-4V59.9h-3.9V28.6h3.9V16.9h4V9.1h3.9V5.2h3.9v-4H598m-63.6.1v4h3.9v3.9h3.9V17h4v11.7h3.9V60h-3.9v11.7h-4v7.7h-3.9v4h-3.9v3.9H499v-3.9h-3.9v-4h-3.9v-7.7h-4V59.9h-3.9V28.6h3.9V16.9h4V9.1h3.9V5.2h3.9v-4h35.4m-39.3 58.7h3.9v11.7h4v7.7h3.9v4h19.7v-4h3.9v-7.7h4V59.9h3.9V28.7h-3.9V16.9h-4V9.1h-3.9V5.2h-19.7v3.9H503v7.8h-4v11.7h-3.9v31.3M459.4 1.3v4h4v3.9h3.9V17h4v11.7h3.9V60h-3.9v11.7h-4v7.7h-3.9v4h-4v3.9h-35.3v-3.9h-3.9V1.3h39.2m-27.5 82h19.7v-4h3.9v-7.7h3.9V59.9h4 0V28.6h-4V16.9h-3.9V9.1h-3.9V5.2h-19.7v78.1m-49-81.8v7.8h3.9v11.6h4v23.4h3.9v19.4h3.9v23.4h-7.8V75.5h-4V63.8h-3.9v-3.9h-11.8v3.9h-3.9v19.6h-3.9v3.9h-7.9v-3.9h4V63.8h3.9v-3.9h-19.5V56h-4v-3.9h-3.9v-7.8h3.9v3.9h7.9v4h7.8V56h7.9V44.3h3.9V20.9h3.9V9.3h4V1.5h7.7M371.1 56h11.8V44.3H379V20.9h-3.9v23.4h-4V56M322.6 1.5v3.9h3.9v81.8h-7.8v-3.9h-4v-39h-23.4v42.8h-7.9v-3.9h-3.9V1.5h7.9v3.9h3.9v35.1h23.4v-39h7.9m-63.4 0v4h3.9 0v77.8h3.9v3.9h-7.8v-3.9h-3.9v-4h-4v4h-3.9v3.9H224v-3.9h-4v-4h-3.9V1.5h7.9v4h3.9v73.8h3.9v4h11.8v-4h3.9v-3.9h3.9v-74h7.8m-67.5.1v3.9h3.9v78h11.8V91h-3.9v7.8h-3.9v3.9h-4V87.2h-46.9v15.6h-3.9v-3.9h-4V91h-3.9v-7.7h11.8V63.8h3.9V44.3h3.9V20.9h4V9.2h3.9V1.5h27.3m-35.3 81.8h27.4v-78h-15.6v15.6h-3.9v23.4h-3.9v19.4h-4v19.6M120.2 1.5v3.9h3.9v4h3.9v7.7h3.9v11.7h4v31.1h-4v11.7H128v7.7h-3.9v4h-3.9v3.9H84.9v-3.9H81v-4h-3.9v-7.7h-4V59.9h-3.9V28.8h3.9V17.1h4V9.3H81v-4h3.9V1.5h35.3M81 59.9h3.9v11.7h3.9v7.7h4v4h19.5v-4h3.9v-7.7h4V59.9h3.9V28.8h-3.9V17.1h-4V9.3h-3.9v-4H92.8v4h-4V17h-3.9v11.7H81v31.2M48.9 1.6v3.9h3.9v3.9h3.9v7.8h4v23.3h-4v7.8h-3.9v3.9H45V56H25.4v27.3h-3.9v3.9H9.8v-3.9h4V5.5h-4V1.6h39.1M25.4 52.2H41v-3.9h0 4v-7.8h3.9V17.2H45V9.3h-4V5.5H25.4v46.7M598 20.8v3.9h-3.9v-3.9h3.9m-242.5 47v15.6h-3.9V67.8h3.9m-345.7 0v15.6H5.9v-3.9H2v-7.8h3.9v-3.9h3.9m403.3 11.5v7.8h-7.9v-7.8h7.9m-142.2 0v4h-4v-4h4m-261.1 4h0 0M599 .3h-1-23.5-1v1 3h-2.9-1v1 2.9h-2.9-1v1V16h-3-1v1 10.7h-2.9-1v1V60v1h1 2.9v10.7 1h1 3v6.7 1h1 2.9v3 1h1 2.9v2.9 1h1H598h1v-1-2.9h3 1v-1-7.8-1h-1-4-1v1 2.9h-2.9-1v1 3h-9.8v-3-1h-1-2.9v-6.7-1h-1-3V59.9v-1h-1-2.9V29.7h2.9 1v-1-10.8h3 1v-1-6.8h2.9 1v-1-2.9h9.8V12h-2.9-1v1 7.8 1h1 2.9v2.9 1h1 3.9 1v-1-3.9-1h-1-2.9v-1.9h2.9 1v-1-3h3 1v-1-7.7-1h-1-3v-3-.9h0zm-63.6 0h-1H499h-1v1 3h-2.9-1v1 2.9h-2.9-1v1V16h-3-1v1 10.7h-2.9-1v1V60v1h1 2.9v10.7 1h1 3v6.7 1h1 2.9v3 1h1 2.9v2.9 1h1 35.4 1v-1-2.9h2.9 1v-1-3h2.9 1v-1-6.7h3 1v-1-10.8h2.9 1v-1-31.2-1h-1-2.9V16.9v-1h-1-3V9.1v-1h-1-2.9V5.2v-1h-1-2.9v-3-.9h0zm-27.5 5.9h17.7v2.9 1h1 2.9v6.8 1h1 3v10.7 1h1 2.9v29.3h-2.9-1v1 10.7h-3-1v1 6.7h-2.9-1v1 3h-17.7v-3-1h-1-2.9v-6.7-1h-1-3V59.9v-1h-1-2.9V29.7h2.9 1v-1-10.8h3 1v-1-6.8h2.9 1v-1-2.9h0zM460.4.3h-1-39.2-1v1 82.1 1h1 2.9v2.9 1h1 35.3 1v-1-2.9h3 1v-1-3h2.9 1v-1-6.7h3 1v-1-10.8h2.9 1v-1-31.2-1h-1-2.9V16.9v-1h-1-3V9.1v-1h-1-2.9V5.2v-1h-1-3v-3-.9h0zm-27.5 5.9h17.7v2.9 1h1 2.9v6.8 1h1 2.9v10.7 1h1 3v29.3h-3-1v1 10.7h-2.9-1v1 6.7h-2.9-1v1 3h-17.7V6.2h0zm-49-5.7h-1-7.8-1v1 6.8h-3-1v1 10.6h-2.9-1v1 22.4h-2.9-1v1V55h-5.9v-2.9-1h-1-6.8v-3-1h-1-6.9v-2.9-1h-1-3.9-1v1V52v1h1 2.9v3 1h1 3v2.9 1h1 18.5v1.9h-2.9-1v1 18.6h-2V67.8v-1h-1-3.9-1v1 15.6 1h1 2.9v2.9 1h1 7.9 1v-1-2.9h2.9 1v-1-18.6h2.9 1v-1-2.9h9.8v2.9 1h1 2.9v10.7 1h1 3v10.7 1h1 7.8 1v-1-23.4-1h-1-2.9V44.3v-1h-1-2.9V20.9v-1h-1-3V9.3v-1h-1-2.9V1.5.5h.1zm-7.8 21.4h1.9v22.4 1h1 2.9V55h-9.8v-9.7h3 1v-1-22.4h0zM323.6.5h-1-7.9-1v1 38h-21.4V5.4v-1h-1-2.9V1.5.5h-1-7.9-1v1 81.8 1h1 2.9v2.9 1h1 7.9 1v-1-41.9h21.4v38 1h1 3v2.9 1h1 7.8 1v-1V5.4v-1h-1-2.9V1.5.5h0zm-63.4 0h-1-7.9-1v1 73h-2.9-1v1 2.9h-2.9-1v1 3h-9.8v-3-1h-1-2.9V5.5v-1h-1-2.8v-3-1h-1-7.9-1v1 77.8 1h1 2.9v3 1h1 3v2.9 1h1 23.4 1v-1-2.9h2.9 1v-1-3h2v3 1h1 2.9v2.9 1h1 7.8 1v-1-2.9h3 1v-1-4-1h-1-4-1v1 3h-1.9V5.5v-1h-1-2.9v-3-1h0zm-67.5 0h-1-27.4-1v1 6.7h-2.9-1v1 10.7h-3-1v1 22.4h-2.9-1v1 18.4h-2.9-1v1 18.6h-10.8-1v1V91v1h1 2.9v6.8 1h1 3v2.9 1h1 3.9 1v-1-14.5h44.9v14.6 1h1 4 1v-1-2.9h2.9 1v-1V92h2.9 1v-1-7.7-1h-1-10.8v-77-1h-1-2.9V1.5.5h.1zm-23.6 5.9h13.6v76h-25.4V64.8h3 1v-1-18.5h2.9 1v-1-22.4h2.9 1v-1V6.4h0zM121.2.5h-1-35.3-1v1 2.9H81h-1v1 3h-2.9-1v1 6.7h-3-1v1 10.7h-2.9-1v1 31.1 1h1 2.9v10.7 1h1 3v6.7 1h1H80v3 1h1 2.9v2.9 1h1 35.3 1v-1-2.9h2.9 1v-1-3h2.9 1v-1-6.7h2.9 1v-1-10.7h3 1v-1-31.1-1h-1-3V17.1v-1h-1-2.9V9.3v-1h-1-2.9v-3-1h-1-2.9V1.5.5h0zM93.8 6.4h17.5v3 1h1 2.9v6.7 1h1 3v10.7 1h1 2.9v29.1h-2.9-1v1 10.7h-3-1v1 6.7h-2.9-1v1 3H93.8v-3-1h-1-3v-6.7-1h-1-2.9V59.9v-1h-1H82V29.8h2.9 1v-1-10.7h2.9 1v-1-6.7h3 1v-1-3h0zM49.9.6h-1H9.8h-1v1 3.9 1h1 3v75.8h-2V67.8v-1h-1-3.9-1v1 2.9H2 1v1 7.8 1h1 2.9v2.9 1h1 2.9v2.9 1h1 11.8 1v-1-2.9h2.9 1v-1V57h18.7 1v-1-2.9H53h1v-1-2.9h2.9 1v-1-6.8h3 1v-1-23.2-1h-1-3V9.3v-1h-1H54V5.5v-1h-1-2.9V1.6.6h-.2zM26.4 6.5H40v2.9 1h1 3v6.8 1h1 2.9v21.3H45h-1v1 6.8h-3-1v1 2.9H26.4V6.5h0zm387.7 71.8h-1-7.9-1v1 7.8 1h1 7.9 1v-1-7.8-1h0z" fill="#3dfaff"/></svg>