<svg xmlns="http://www.w3.org/2000/svg" viewBox="0 0 606 108" xmlns:v="https://vecta.io/nano"><path d="M195 106.3V90.7h-44v15.6h-6.9v-3.9h-4v-7.8h-3.9V83.9H148V64.3h3.9V44.8h3.9V21.4h4V9.7h3.9V2h30.4v3.9h3.9v78h11.8v10.7H206v7.8h-4v3.9h-7zm-11.8-22.5v-75h-12.6v15.6h-3.9v23.4h-3.9v19.4h-4v16.6h24.4zm240.3 7v-4h-3.9v-85h42.2v4h4v3.9h3.9v7.8h4v11.7h3.9v34.3h-3.9v11.7h-4v7.7h-3.9v4h-4v3.9h-38.3 0zm27.5-7v-4h3.9v-7.7h3.9V60.4h4V32.1h-4V20.4H455v-7.8h-4V8.7h-16.7v75.1H451zm-96 7v-3.9h-4V68.3h6.9v15.6h1V64.3h3.9v-.9h-19.5v-3.9h-4v-3.9h-3.9V44.8h6.9v3.9h7.9v4h7.8v3.9h4.9V44.8h3.9V21.4h3.9V9.8h4V2h10.8v7.8h3.9v11.6h4v23.4h3.9v19.4h3.9v26.4h-10v-.9h-1V79h-4V67.3h-3.9v-3.9h-8.8v3.9h-3.9v19.6h-3.9v3.9H355zm27.3-34.3v-8.7h-3.9V24.4h-.9v23.4h-4v8.7c0 0 8.8 0 8.8 0zM9.2 90.8v-4H5.4V83H1.5V72.2h3.9v-3.9h6.9v15.6h1V9h-4V2.1h42.2V6h3.9v3.9h3.9v7.8h4V44h-4v7.8h-3.9v3.9h-7.8v3.9H27.9v27.3H24v3.9H9.2zm31.3-38.1v-3.9h4V41h3.9V20.7h-3.9v-7.9h-4V9H27.9v43.7h12.6zm533.5 38v-3.9h-4v-4h-3.9v-7.7h-4V63.4h-3.9V29.1h3.9V17.4h4V9.6h3.9V5.7h3.9v-4h26.5v4h4v10.7h-4v4h-3.9v.9h3.9v6.9h-6.9v-3.9h-3.9V13.5h3.9V8.7h-8.8v3.9H581v7.8h-4v11.7h-4v28.3h3.9v11.7h4v7.7h3.9v4h8.8v-4h3.9V76h7v10.8h-4v3.9H574zm-75.5 0v-3.9h-3.9v-4h-3.9v-7.7h-4V63.4h-3.9V29.1h3.9V17.4h4V9.6h3.9V5.7h3.9v-4h38.4v4h3.9v3.9h3.9v7.8h4v11.7h3.9v34.3h-3.9v11.7h-4v7.7h-3.9v4h-3.9v3.9h-38.4 0zm27.5-6.9v-4h3.9v-7.7h4V60.4h3.9V32.2H534V20.4h-4v-7.8h-4V8.7h-16.7v3.9h-3.9v7.8h-4v11.7h-3.9v28.3h3.9v11.7h4v7.7h3.9v4H526zm-121.2 6.9V79.9h10.9v10.8h-10.9zm-86.6 0v-3.9h-4v-39h-20.4v42.8h-9.9v-.9h-1v-2.9H279V2h10.9v3.9h3.9V41h20.4V2H325v3.9h3.9v84.8h-10.7zm-59.6 0v-3.9h-3.9v-4h-1v4h-3.9v3.9h-26.4v-3.9h-4v-4h-3.9V2h10.9v4h3.9v73.8h3.9v4h8.7v-4h3.9V76h3.9V2h10.9v4h3.9v77.8h.9v-4h7v7h-4v3.9h-10.8zm-174.2 0v-3.9h-3.9v-4h-3.9v-7.7h-4V63.4h-3.9V29.3h3.9V17.6h4V9.8h3.9v-4h3.9V2h38.3v3.9h3.9v4h3.9v7.7h3.9v11.7h4v34.1h-4v11.7h-3.9v7.7h-3.9v4h-3.9v3.9H84.4h0zm27.4-7v-3.9h3.9v-7.7h4V60.4h3.9V32.3h-3.9V20.6h-4v-7.8h-3.9v-4H95.2v4h-4v7.7h-3.9v11.7h-3.9v28.1h3.9V72h3.9v7.7h4v4h16.6 0z" fill="#494639" stroke="#3dfaff" stroke-width="1.5" stroke-miterlimit="10"/></svg>